<svg width="81" height="80" viewBox="0 0 81 80" fill="none" xmlns="http://www.w3.org/2000/svg">
<path d="M8.60566 69.5277L8.76136 69.9239C8.77518 69.9589 8.79544 69.9906 8.81926 70.0182C8.77775 70.0771 8.75555 70.1491 8.75879 70.2238C8.75976 70.2455 8.76342 70.2671 8.76844 70.2878L8.45061 70.5075L7.43667 70.3382C7.37765 70.3283 7.31667 70.3348 7.26103 70.3569L6.67621 70.5896C6.56786 70.6328 6.49026 70.7305 6.47226 70.8462L6.4639 70.8966L6.11905 71L5.97237 70.9354L5.95821 70.6781L6.21363 70.5954C6.29318 70.5695 6.36037 70.5144 6.40085 70.4409L6.73411 69.834L6.97409 69.8618C7.02551 69.8676 7.07809 69.8613 7.12657 69.8431L8.12057 69.4689L8.60566 69.5277Z" fill="#5456D1"/>
<path d="M10.5531 69.2103L10.4534 69.4424L10.4463 69.4462L10.3466 69.2394C10.4133 69.2399 10.4779 69.2201 10.5325 69.1832L10.5531 69.2103Z" fill="#5456D1"/>
<path d="M14.3593 66.8015C14.399 66.8226 14.4423 66.8339 14.486 66.8377C14.4052 66.9612 14.4152 67.124 14.5131 67.2365L14.7826 67.5467C14.8626 67.6385 14.9866 67.6789 15.1049 67.6514C15.2233 67.6238 15.3172 67.5327 15.3488 67.4148L15.4022 67.2151L15.4485 67.2164L15.4897 67.3237C15.5236 67.412 15.5938 67.4819 15.682 67.515L15.8088 67.5622L15.664 67.6301C15.6158 67.6525 15.5735 67.686 15.5412 67.7283C15.5184 67.7187 15.4942 67.7107 15.4691 67.7063C15.3422 67.6846 15.2163 67.7394 15.1442 67.8427L15.1165 67.8899L15.0992 67.9248L14.9988 67.8479C14.8992 67.7714 14.7663 67.759 14.6559 67.8123L14.6102 67.8395L13.8993 68.3371L13.7886 68.3171L13.8266 68.1775C13.8472 68.1008 13.8397 68.019 13.8053 67.9474L13.5589 67.4355C13.5086 67.3309 13.4072 67.2599 13.2919 67.2494C13.1911 67.2403 13.0924 67.2783 13.0237 67.3509L12.996 67.3845L12.7264 67.7561C12.6812 67.8184 12.6592 67.895 12.664 67.972L12.682 68.2654L12.0869 68.9764C12.0172 68.9029 11.9164 68.8642 11.8128 68.8755C11.6803 68.8901 11.5695 68.9835 11.5323 69.1121L11.486 69.2704L11.4532 69.2614L11.4674 68.7605C11.4704 68.6495 11.4175 68.5438 11.3271 68.48L11.192 68.385L11.3213 68.224L12.1519 67.4556L13.0642 66.8222L14.0357 66.6283L14.3593 66.8015Z" fill="#5456D1"/>
<path d="M15.3996 69.1644C15.417 69.1691 15.435 69.1724 15.453 69.1741L15.4627 69.1748L15.3977 69.2401L15.2877 69.1341L15.3996 69.1644Z" fill="#5456D1"/>
<path d="M26.2622 9.01874L27.2408 9.45501L27.0465 9.65408L26.9905 9.6586C26.8439 9.67037 26.7252 9.77752 26.6945 9.91713L26.6875 9.97854L26.6701 10.5467C26.6671 10.6503 26.7132 10.7493 26.7936 10.8142C26.874 10.879 26.98 10.9028 27.0799 10.8776L27.7124 10.7173C27.8558 10.6808 27.9573 10.5524 27.9607 10.4038L27.9626 10.3011C27.982 10.3031 28.0019 10.3045 28.0218 10.303C28.1507 10.2932 28.2624 10.2085 28.3068 10.0865L28.3583 9.94299L28.4413 10.0296L28.3834 10.3069C28.3491 10.4713 28.4429 10.6356 28.6015 10.6888L28.8678 10.778L29.0312 10.979C29.0957 11.0583 29.1932 11.1038 29.295 11.1012C29.3969 11.0985 29.4921 11.0481 29.5524 10.9655L29.7718 10.6636L30.1945 10.6481C30.2365 10.6465 30.2783 10.6369 30.3167 10.6197L30.5387 10.5195L31.2206 10.6242L31.3609 10.6695L31.2264 11.2608C31.187 11.4337 31.2904 11.6069 31.4606 11.6538L32.0885 11.827L32.1233 11.9007C32.1551 11.9691 32.2095 12.0245 32.277 12.0578L33.0201 12.4229C33.111 12.4675 33.218 12.4679 33.309 12.4236C33.3999 12.3792 33.4658 12.2953 33.4872 12.1961L33.493 12.1683L33.8205 11.9964L33.944 11.9944C33.9916 12.118 34.1091 12.2061 34.2477 12.2071L34.5681 12.2084C34.6583 12.2088 34.7449 12.1722 34.8074 12.1069L35.0287 11.8749L35.3549 11.8283L35.6701 11.8955L36.1546 12.1495C36.2346 12.1913 36.3286 12.1984 36.4139 12.1689L36.4274 12.1638L36.6365 12.4023C36.6992 12.4736 36.7901 12.515 36.8848 12.5147C36.9795 12.5144 37.0696 12.4727 37.1319 12.401L37.1557 12.3732L37.2117 12.3913L37.4111 12.5761L37.5616 12.7177C37.6103 12.7633 37.6721 12.7936 37.7379 12.8036L38.4424 12.9103C38.4982 12.9187 38.5556 12.9129 38.6084 12.8928L38.9262 12.7713L39.3045 12.7286L39.8308 12.7972C39.884 12.8039 39.9383 12.7974 39.9884 12.7784L40.1357 12.7222L40.3513 12.8747C40.3672 12.8859 40.3845 12.8956 40.4021 12.9038L40.9991 13.1824C41.0456 13.204 41.0972 13.2143 41.1484 13.2127L41.896 13.1895C41.9862 13.1866 42.0714 13.1467 42.1315 13.079L42.282 12.909L42.6951 12.7474C42.7734 12.7166 42.8373 12.657 42.8733 12.5806L42.946 12.4249L43.038 12.4035C43.065 12.4351 43.0967 12.4633 43.1345 12.483C43.2271 12.5311 43.3374 12.5323 43.4311 12.4863L43.6279 12.3887L44.1748 12.5205L44.611 12.8683C44.6468 12.8968 44.6884 12.918 44.7326 12.9297L45.1096 13.0279L45.1707 13.1203C45.237 13.2198 45.3517 13.2759 45.4705 13.2664L45.7356 13.2444L45.9917 13.4092L46.0386 13.5191C46.083 13.6224 46.1771 13.6965 46.2876 13.7149C46.3951 13.7327 46.504 13.6956 46.5791 13.6167L53.4084 48.2662C53.4353 48.402 53.5437 48.5068 53.6799 48.5286L54.5832 48.6734C54.7614 48.7017 54.9299 48.5806 54.9602 48.4019L55.6106 48.5842C55.757 48.625 55.9129 48.5597 55.987 48.4265L56.3113 47.8428L56.9122 47.6638L56.9353 48.3011C56.9388 48.3963 56.9833 48.4859 57.0569 48.546L57.3915 48.8188C57.4289 48.8493 57.4728 48.8717 57.5195 48.8834L58.0992 49.0282L58.2858 49.3927C58.3127 49.4453 58.3537 49.4898 58.4035 49.5213L60.7048 50.9769L61.2382 52.053C61.2895 52.1564 61.3912 52.2262 61.5058 52.2359C61.6204 52.2455 61.7321 52.1942 61.7998 52.1008L62.1067 51.6768L62.2405 51.5056L62.2219 51.5682C62.1928 51.6628 62.2075 51.7655 62.2618 51.8481C62.3162 51.9307 62.405 51.9847 62.503 51.9948L63.1419 52.0607L63.6984 52.4802C63.7566 52.524 63.8274 52.5455 63.8991 52.5448L63.9982 52.7762C64.0111 52.8062 64.0286 52.8347 64.0497 52.8596L64.262 53.111L64.0574 53.2836L63.8329 53.2248C63.7193 53.1949 63.5984 53.2278 63.5157 53.3114C63.4612 53.3664 63.429 53.4381 63.4217 53.513L63.2821 53.3521C63.2103 53.2696 63.1029 53.2287 62.9965 53.2409L62.9508 53.25L62.7295 53.3075L61.7857 52.8518L61.058 52.4363L60.9403 52.1648C60.9326 52.1472 60.9231 52.1303 60.9126 52.1144L60.8772 52.0698L60.4011 51.5663C60.3649 51.528 60.3203 51.4989 60.2712 51.4816L60.221 51.4681L59.2212 51.2871L58.5598 51.0292L58.5315 51.0195L57.5182 50.7293L57.0878 50.5199C57.1089 50.4916 57.1279 50.4613 57.1393 50.4268L57.2628 50.0487C57.2903 49.9646 57.2831 49.8728 57.2429 49.7941L56.9488 49.2208L57.0698 48.8866C57.1162 48.7581 57.0791 48.6139 56.9765 48.5241L56.8073 48.376C56.7238 48.3033 56.6095 48.2778 56.503 48.3075C56.4097 48.3337 56.333 48.399 56.2926 48.4859L56.2778 48.5247L56.0211 49.3223L55.3694 49.8917L54.3149 49.9318L53.5107 49.6991L53.4373 49.5091C53.3719 49.3406 53.1839 49.2559 53.0153 49.319L52.6865 49.4418L52.2941 49.2938C52.2775 49.2876 52.26 49.2831 52.2426 49.2796L52.1892 49.2731L51.0357 49.2357L50.9797 49.2389L50.3884 49.3203C50.3703 49.3228 50.3519 49.3271 50.3344 49.3326L48.9904 49.7566L48.9569 49.7695L48.6076 49.9221L48.0163 49.5717C47.9982 49.561 47.9789 49.5517 47.9591 49.5446L47.898 49.5297L47.207 49.425L47.0738 49.2538L46.8847 48.7632C46.8335 48.6304 46.7049 48.5476 46.5675 48.5518L46.5083 48.559L45.993 48.6708C45.8702 48.6975 45.773 48.792 45.7427 48.9144L45.7131 49.0321L45.0993 48.7147L44.9835 48.5286C44.9353 48.4513 44.8571 48.397 44.768 48.3793C44.7348 48.3727 44.7012 48.373 44.6683 48.3767L44.5531 48.1582C44.5118 48.08 44.4407 48.0214 44.3562 47.996C44.2928 47.977 44.2254 47.9783 44.1632 47.9979L44.1027 48.0238L44.012 48.0736L43.9303 47.9346C43.8805 47.8502 43.7963 47.7929 43.7013 47.7769L43.6601 47.7724L43.4639 47.7646L43.0425 46.8882C42.9897 46.7784 42.8807 46.7065 42.7594 46.7014C42.6379 46.6965 42.5231 46.759 42.4615 46.8643L42.3515 47.0517L42.1186 47.1519L42.0588 47.1118C41.9768 47.0567 41.8746 47.0412 41.7802 47.0698C41.6858 47.0985 41.6089 47.1683 41.5711 47.2598L41.5048 47.4201L41.0217 47.3859C40.9344 47.3798 40.8483 47.409 40.7823 47.4667C40.7493 47.4955 40.7223 47.5302 40.7032 47.5688L40.7154 47.4382C40.7247 47.3347 40.6847 47.2326 40.608 47.1629C40.5311 47.0933 40.4259 47.0642 40.3243 47.084L40.1332 47.1215C40.0306 47.1417 39.9444 47.2089 39.8996 47.3019L39.8835 47.3432L39.6262 48.1324C39.5731 48.2959 39.6537 48.4734 39.8115 48.5402L40.1261 48.6734L40.2039 49.0392C40.2106 49.0707 40.222 49.1014 40.2374 49.1297L40.4922 49.597L40.4684 49.7062C40.3907 49.6772 40.305 49.6772 40.2277 49.7094C40.1623 49.7368 40.108 49.7844 40.0721 49.8445L40.0425 49.9085L39.9376 50.2194C39.9082 50.3065 39.916 50.4021 39.9595 50.4831C40.003 50.5638 40.0781 50.6229 40.1666 50.6459L40.4008 50.7067L40.5186 51.0531L40.4311 51.0919L40.2934 51.015C40.1886 50.9564 40.0599 50.9596 39.9582 51.0234L39.7176 51.174L39.6873 51.1481C39.6333 51.1017 39.566 51.0743 39.4962 51.0693L39.4261 51.0719L39.1784 51.1074C39.1591 50.9962 39.0849 50.9013 38.9796 50.8579C38.8786 50.8165 38.7644 50.8282 38.6747 50.887L38.638 50.9155L38.3877 51.1352C38.379 51.1429 38.3718 51.1525 38.3639 51.1611C38.3145 51.1348 38.2582 51.1213 38.2005 51.1229C38.1002 51.1258 38.0075 51.1744 37.9477 51.2535L37.9239 51.2897L37.6253 51.8132C37.5666 51.9163 37.5679 52.0429 37.6273 52.1448L37.5359 52.2236L37.2271 52.2747C37.13 52.2906 37.0461 52.3492 36.9968 52.433L36.9775 52.4705L36.8269 52.8208L36.6423 52.996L36.5599 52.965C36.438 52.9184 36.3024 52.949 36.2119 53.0386L36.1758 53.0806L35.9616 53.3786L35.8638 53.3767C35.7578 53.3745 35.6581 53.4233 35.5949 53.5066L35.5704 53.5441L35.149 54.2912L34.8865 54.3281L34.7894 54.2046C34.7244 54.1221 34.6238 54.0756 34.5192 54.0792C34.4408 54.082 34.367 54.1128 34.3101 54.1645L34.2586 54.2233L34.0868 54.4761L33.8172 54.3636L33.8571 54.1316L34.1486 54.0004L34.3313 54.021C34.4708 54.0364 34.6051 53.961 34.6652 53.8336L34.7662 53.6177L35.2436 53.1349C35.3081 53.0695 35.3426 52.9801 35.3388 52.888L35.3208 52.4666C35.3154 52.3413 35.2398 52.2295 35.1259 52.1784C35.0118 52.1273 34.8787 52.1452 34.7823 52.2249L34.2303 52.6819L33.9324 52.5371L33.9318 52.5339L34.1872 51.7072L34.6594 51.0486C34.6949 50.9992 34.716 50.9407 34.7205 50.8799L34.7533 50.4359L34.7739 50.4197C34.8431 50.362 34.8855 50.2779 34.8917 50.1877L34.9328 49.5827C34.9364 49.5304 34.9277 49.4777 34.9071 49.4296L34.7501 49.0644L35.0828 48.9254C35.1148 48.912 35.1446 48.8933 35.1709 48.8705L36.0864 48.0755L36.1527 48.1628C36.2015 48.2269 36.272 48.2713 36.3508 48.2869L36.7446 48.3644C36.8385 48.3828 36.9363 48.3591 37.0116 48.2998L37.5661 47.8629C37.6478 47.7985 37.6946 47.6989 37.6922 47.5946C37.6898 47.4903 37.6379 47.3927 37.5533 47.3322L36.9234 46.883L36.677 46.5405C36.6051 46.4406 36.4832 46.3889 36.3618 46.4067L36.0188 46.4571L35.7821 46.3395C35.6371 46.2671 35.4611 46.311 35.3671 46.4435L35.2918 46.5489L34.7958 46.821C34.7319 46.856 34.681 46.9111 34.6517 46.978L34.4831 47.3626L34.0662 47.4667C34.0185 47.4786 33.974 47.5015 33.9363 47.5326L33.9009 47.5662L33.3405 48.1899C33.3069 48.2273 33.2823 48.2718 33.2685 48.3198L33.2582 48.3689L33.2279 48.6016L32.9326 48.7574C32.8712 48.7896 32.8218 48.8403 32.7911 48.9015L32.7666 48.9655L32.6746 49.3093L32.4347 49.5123C32.3725 49.5647 32.3316 49.6384 32.3201 49.7191L32.2262 50.3745L31.6806 50.8095C31.6102 50.8655 31.5656 50.9485 31.5571 51.0383C31.5488 51.1278 31.5772 51.217 31.6356 51.2852L31.8395 51.5224L31.7372 51.7583L31.3113 51.8384C31.1825 51.8624 31.0818 51.96 31.0514 52.0847L31.0431 52.1396L31.0006 52.7155L30.8906 52.7704L30.8481 52.7084C30.7809 52.6101 30.6659 52.5558 30.5477 52.5662C30.4441 52.5753 30.3517 52.6329 30.2974 52.72L30.2768 52.7588L30.0934 53.1634L29.9545 53.1724C29.8616 53.1783 29.7757 53.2234 29.7177 53.2965C29.6598 53.3697 29.6351 53.4641 29.6502 53.5563L29.674 53.7037L29.1902 53.8737C29.0866 53.9101 29.009 53.9954 28.9811 54.0999L28.9721 54.1458L28.8331 55.2917C28.8223 55.3815 28.8486 55.472 28.9058 55.5419C28.9631 55.6117 29.0469 55.6549 29.1368 55.6614L29.8992 55.7164L30.4319 55.9633L30.5097 56.1035L30.3405 56.4835L30.0027 56.7531L29.6926 56.7692C29.5175 56.7786 29.3803 56.9246 29.3806 57.1008V57.2236L29.3028 57.2572C29.1637 57.3173 29.0833 57.4652 29.1078 57.6153L29.1599 57.9384L28.9489 58.407L28.4599 58.853L28.2373 58.8517C28.1915 58.8513 28.146 58.8601 28.1042 58.8782L28.0636 58.8995L27.8069 59.0553L27.5689 59.0255C27.4835 59.0146 27.3969 59.0374 27.3283 59.0895L27.0426 59.3067C26.9271 59.3946 26.8837 59.5473 26.9326 59.6829L26.7833 59.7287C26.7064 59.7522 26.6417 59.8027 26.6 59.8696L26.5665 59.9414L26.5652 59.9446C26.4881 59.8909 26.3921 59.8717 26.3002 59.8942C26.2245 59.9128 26.1582 59.9572 26.1129 60.0189L26.075 60.0862L25.7964 60.7428L25.4091 60.684C25.3075 60.6685 25.2044 60.702 25.1305 60.7738C25.061 60.8415 25.026 60.9359 25.0321 61.0324C24.9492 61.0218 24.8651 61.043 24.7973 61.0925L24.7632 61.1209L24.5412 61.3342C24.4946 61.3789 24.4623 61.4362 24.4479 61.4984L24.4395 61.5617L24.419 62.135L24.0555 62.8957L23.5041 62.9642C23.4576 62.97 23.4132 62.9859 23.3735 63.0101L23.3355 63.0373L22.8247 63.4587L22.7539 63.3811C22.6861 63.3068 22.5877 63.2674 22.4876 63.2745C22.4125 63.2799 22.3425 63.3109 22.2881 63.3611L22.2392 63.418L21.8687 63.9602C21.8299 63.9443 21.788 63.9352 21.7451 63.935L21.6924 63.9395L21.3218 63.999C21.2025 64.0181 21.1042 64.1007 21.0638 64.2123L21.0503 64.2621L20.9776 64.6324L20.8554 64.6893L20.5324 64.6098C20.4124 64.5801 20.2877 64.6205 20.2075 64.7113L20.176 64.7533L19.8459 65.2736C19.7927 65.3576 19.7799 65.4615 19.8112 65.556C19.8425 65.6503 19.9148 65.7257 20.0074 65.7609L20.2023 65.8346L19.7616 66.5184L18.0194 66.7588C17.9398 66.7698 17.8679 66.8092 17.8161 66.8687L17.7717 66.934L17.7485 66.9773C17.7213 66.9524 17.6895 66.9314 17.654 66.9165L17.2898 66.7646C17.2258 66.7379 17.1555 66.7324 17.0891 66.7478L17.0248 66.7705L16.5545 66.9896C16.5435 66.9947 16.5332 67.0014 16.5229 67.0077C16.5324 66.8854 16.474 66.7675 16.3704 66.7019L15.9889 66.4609L16.3865 65.6568L16.8227 65.2005L17.4648 64.7662L18.5598 64.3946C18.5972 64.3818 18.6322 64.3622 18.6628 64.337L19.2347 63.8665L19.3705 63.9796C19.4522 64.0476 19.5619 64.0719 19.6645 64.0449L19.963 63.966C20.1185 63.9247 20.2216 63.776 20.2068 63.6151L20.1708 63.226L20.2422 62.9293L20.8 62.1932L21.5734 61.7143C21.6026 61.6961 21.6289 61.6734 21.6512 61.647L22.2663 60.9186C22.3126 60.8638 22.34 60.7946 22.3441 60.7228L22.366 60.3259L22.9894 57.5125L23.7177 56.8171C23.7884 56.7495 23.8255 56.6537 23.8193 56.5559L23.7788 55.9303C23.7719 55.8237 23.7141 55.7268 23.6238 55.6705C23.5559 55.6282 23.4758 55.613 23.3986 55.6252L23.3233 55.6466L21.5193 56.404L21.2568 56.3284L21.1957 56.13C21.1779 56.0725 21.1446 56.021 21.1005 55.9813L21.0522 55.9458L20.8611 55.8282L20.8373 55.5684C20.8267 55.4543 20.758 55.3537 20.6559 55.3027C20.5665 55.2582 20.4623 55.2572 20.3728 55.2982L20.3355 55.3182L20.0466 55.4992C20.0023 55.527 19.9652 55.5645 19.9386 55.6091L19.9154 55.6556L19.6632 56.2812C19.6335 56.355 19.6312 56.4374 19.6568 56.5126L19.8659 57.1305L19.7777 57.1964L19.7346 57.1751L19.2605 55.9645L19.2469 55.9335L18.8892 55.2381C18.8438 55.1498 18.7612 55.0875 18.666 55.0668L18.6242 55.0603L18.3501 55.0371C18.2042 55.0249 18.0674 55.1111 18.0149 55.2484L17.9814 55.335L17.9737 55.3221C17.9332 55.2539 17.8693 55.2024 17.7942 55.1773L17.6585 55.1321L17.607 54.6874C17.5943 54.5788 17.5285 54.4834 17.432 54.4328C17.3352 54.3822 17.2192 54.3827 17.1232 54.4347L15.978 55.0552L15.0348 55.4785C14.974 55.5058 14.9233 55.5504 14.8888 55.6065L14.8598 55.6666L14.8084 55.8049L14.358 56.0007L14.3355 55.9723L14.5311 55.7674C14.5854 55.7103 14.6175 55.6349 14.6218 55.5561L14.6803 54.4709C14.6813 54.4522 14.6805 54.4332 14.6784 54.4147L14.5639 53.4264L14.948 53.1194C15.0513 53.0366 15.0954 52.8996 15.0599 52.7717L14.7736 51.746L14.7556 51.6962L14.5047 51.152L14.3438 50.3777C14.3349 50.3344 14.3172 50.293 14.2924 50.2569L14.2647 50.2226L13.9128 49.8335C13.8341 49.7466 13.7152 49.7083 13.6008 49.7327C13.5006 49.7541 13.417 49.8206 13.373 49.9117L13.3563 49.9524L13.1987 50.4307L12.9027 50.4915C12.8848 50.4951 12.867 50.5004 12.85 50.507L12.0477 50.8166L11.1939 50.8573L10.8459 50.7752L10.6162 50.6085L10.6348 50.1806C10.6395 50.0726 10.591 49.969 10.5055 49.9033L10.2668 49.7204L9.84543 48.8621C9.8214 48.8131 9.78555 48.7708 9.74185 48.7393L9.69553 48.7108L9.3198 48.5253L9.08369 47.879L9.34747 47.6767C9.40625 47.6315 9.44818 47.5678 9.46649 47.4958L9.66014 46.7337C9.68945 46.6182 9.65436 46.4957 9.56878 46.4132C9.52701 46.3729 9.47626 46.3449 9.4221 46.3311L9.55527 46.0842C9.61682 45.9699 9.60584 45.8296 9.52761 45.7261L9.2085 45.3041C9.12911 45.1992 8.99486 45.1519 8.86751 45.1832C8.85439 45.1864 8.84134 45.1901 8.82891 45.1948L8.84242 45.0249C8.85324 44.881 8.76971 44.7465 8.63655 44.6926L8.43131 44.6099L8.37598 44.374L8.46026 43.9093C8.47043 43.8529 8.46509 43.7961 8.4474 43.7438C8.48822 43.7175 8.52412 43.683 8.55033 43.6404C8.60521 43.5511 8.61427 43.4405 8.57543 43.3431L8.51752 43.1983L8.5928 43.2074C8.76573 43.2277 8.92495 43.1088 8.95566 42.9366L9.07082 42.2857L9.23488 41.9283L10.5499 40.637C10.561 40.6261 10.5714 40.6144 10.5808 40.6021L10.7101 40.4314C10.7882 40.4541 10.8735 40.4486 10.9488 40.4107C11.0624 40.3536 11.1334 40.2352 11.1309 40.1076L11.1187 39.5272L11.6404 38.6333L11.9492 38.3567L12.4202 38.3044L12.7219 38.4724L13.3029 39.1834C13.3672 39.2619 13.4641 39.3067 13.5654 39.3042L14.0543 39.2926C14.1217 39.2909 14.1873 39.2681 14.2416 39.228L14.9827 38.6799C15.0019 38.6656 15.0197 38.6488 15.0355 38.6308L15.6814 37.8875C15.7331 37.9701 15.8198 38.0286 15.9214 38.0407L16.6902 38.1318C16.7205 38.1354 16.7514 38.1348 16.7816 38.1299L17.5131 38.0103C17.5946 37.9969 17.6686 37.9534 17.7196 37.8881L18.4755 36.9186C18.5139 36.8695 18.5381 36.8102 18.5444 36.748L18.5682 36.5089C18.5715 36.4765 18.5699 36.4432 18.5637 36.4113L18.3771 35.4534L18.3778 34.9234C18.3778 34.864 18.3622 34.8052 18.3321 34.7541L18.0258 34.2351C18.0821 34.2275 18.1369 34.2053 18.1835 34.1692L18.6853 33.7801C18.7567 33.7246 18.8022 33.6415 18.8114 33.5513L18.8519 33.1532C18.8589 33.0839 18.8442 33.0137 18.8095 32.9534L18.3256 32.1171C18.2736 32.027 18.1822 31.9664 18.0792 31.9542C17.9762 31.9421 17.8734 31.9795 17.8019 32.0551L17.4352 32.4428L17.2551 32.3756C17.1611 32.3404 17.057 32.3503 16.972 32.4008L16.9373 32.4248L16.64 32.6574L16.281 32.6768C16.179 32.6822 16.0849 32.7346 16.0269 32.819L15.9349 32.9528L15.4588 33.1868C15.401 33.2152 15.3529 33.26 15.3205 33.3147L15.3179 33.3115L15.2581 33.2604L14.9936 33.0827C14.9195 33.033 14.8279 33.0153 14.7408 33.0342C14.6754 33.0485 14.6162 33.0824 14.571 33.1305L14.5304 33.1835L14.5098 33.2165L14.1348 32.8823C14.098 32.8496 14.0542 32.8255 14.0074 32.8119L13.9598 32.8016L12.8236 32.6497C12.7989 32.6464 12.7736 32.6461 12.7489 32.6484L12.6756 32.6639L11.8637 32.9347L11.6629 32.936L11.1637 32.6225L11.1161 32.598L9.9844 32.1236L9.80104 31.9361L9.75086 31.7267L9.9162 31.337C9.96067 31.2319 9.94794 31.1106 9.88275 31.0171L9.62797 30.6525L9.70839 30.4728L9.93486 30.3449C10.0372 30.2867 10.101 30.1779 10.1021 30.0598L10.1079 29.429C10.1093 29.2695 9.99678 29.1311 9.84093 29.1007L9.47614 29.0303L9.24002 28.8532C9.22785 28.8441 9.21469 28.8359 9.20142 28.8286L9.16025 28.8092L8.55741 28.5798L8.29814 28.2566L8.26211 28.2185L7.90568 27.8966V27.8921L8.67322 27.6193C8.68611 27.6147 8.69896 27.6087 8.71118 27.6025L9.94001 26.9814L10.6226 26.6957L10.8394 26.9135C10.8759 26.9501 10.921 26.9776 10.97 26.9937L11.3856 27.1301C11.5446 27.1821 11.7173 27.1063 11.7871 26.9536L11.9673 26.5606C12.0045 26.4792 12.0067 26.3857 11.9743 26.3021C11.9512 26.2426 11.911 26.1923 11.8605 26.1554L12.6634 25.8891L13.824 25.6603L14.3477 25.7088L14.3561 25.7133L14.1959 26.0294C14.1674 26.0854 14.1552 26.1484 14.1611 26.211L14.1914 26.5322L14.064 26.7015C14.0036 26.7818 13.9826 26.8858 14.0074 26.9833L14.1463 27.5288C14.1861 27.6849 14.332 27.7899 14.4918 27.777L14.8682 27.7467L15.3282 27.9005C15.368 27.9138 15.4105 27.9198 15.4524 27.9173L15.8944 27.8895L15.9767 27.9884C16.0223 28.0429 16.0846 28.0813 16.1536 28.0976L16.5268 28.1862C16.5901 28.2011 16.6569 28.1968 16.7179 28.1739L16.9617 28.0821L17.2268 28.2592C17.3722 28.3561 17.5679 28.3225 17.6726 28.1823L18.1577 27.5327L18.3153 27.6516C18.3997 27.7147 18.5096 27.7333 18.61 27.7021C18.7103 27.6708 18.7901 27.5931 18.8242 27.4933L18.9825 27.0286C19.037 26.8688 18.963 26.6931 18.8107 26.6214L18.381 26.4191L18.4897 26.1147C18.5276 26.0082 18.5086 25.8892 18.4395 25.7999L18.04 25.2842L18.363 24.4194C18.4045 24.308 18.3834 24.1824 18.3076 24.091L18.123 23.8687C18.0505 23.7816 17.939 23.7392 17.829 23.753L17.782 23.7621L17.2628 23.9068L16.9514 23.8338L16.9353 23.7892C16.9034 23.7032 16.837 23.6344 16.7526 23.5992C16.689 23.5728 16.6192 23.5672 16.5532 23.5824L16.4888 23.6044L16.3003 23.691L15.4697 23.2469L15.5058 23.0052C15.511 22.9698 15.5108 22.9332 15.5045 22.8979L15.3044 21.7817C15.2975 21.7433 15.2836 21.7062 15.2639 21.6725L15.0175 21.2517C15.0105 21.24 15.0026 21.2283 14.9943 21.2175L14.9673 21.1865L14.58 20.7948L13.7912 19.7548C13.7857 19.7477 13.7798 19.7402 13.7738 19.7335L13.3878 19.3031C13.3706 19.284 13.3508 19.2672 13.3299 19.2527L13.2617 19.2165L12.967 19.1014L12.4955 18.4564L12.4478 18.4047L12.2819 18.2573C12.3495 18.2295 12.4073 18.1811 12.444 18.1164L12.7438 17.5884C12.7597 17.5604 12.7713 17.5299 12.7785 17.4985L12.9645 16.6867L13.8234 16.9C13.8498 16.9066 13.8772 16.9099 13.9044 16.9097L15.4337 16.9007C15.4722 16.9004 15.5108 16.8935 15.5469 16.88L15.9632 16.7242C15.9914 16.7137 16.018 16.6988 16.0423 16.6809L16.6992 16.1988C16.7189 16.1843 16.7372 16.1675 16.7533 16.149L17.4468 15.3501C17.4772 15.3151 17.4995 15.2737 17.5131 15.2293L17.7672 14.3923L18.0676 13.7505L18.5791 13.2043C18.5919 13.1907 18.6036 13.176 18.6139 13.1604L18.8847 12.7493L19.2592 12.3835C19.2739 12.3893 19.2892 12.3947 19.3048 12.3984L19.8009 12.5154C19.8669 12.5309 19.9368 12.5253 19.9997 12.4998L20.7704 12.1877C20.7958 12.1774 20.8204 12.1638 20.8425 12.1476L21.3379 11.7831C21.3495 11.7745 21.3609 11.7653 21.3713 11.7553L22.4844 10.6824L22.4895 10.6817C22.5146 10.7263 22.5491 10.7658 22.5924 10.7948C22.6697 10.8466 22.7655 10.8634 22.8556 10.8407L23.2024 10.7528L23.5343 10.8097C23.5686 10.8155 23.6042 10.8155 23.6386 10.8104L24.455 10.6876C24.5005 10.6807 24.5442 10.6639 24.583 10.6391L25.3724 10.1343C25.4066 10.1124 25.4365 10.0844 25.4606 10.0516L26.23 9C26.2405 9.00621 26.251 9.01373 26.2622 9.01874Z" fill="#5456D1"/>
<path d="M75.2018 64.2679L75.1149 64.2033L75.1863 64.147L75.2018 64.2679Z" fill="#5456D1"/>
<path d="M72.7982 59.825C72.8347 59.877 72.8854 59.9176 72.9442 59.9414L74.0695 60.3958L74.4027 60.6808L74.5069 60.9923C74.5514 61.1252 74.6743 61.2163 74.8138 61.2185H74.8537L75.0081 61.5281C75.0316 61.575 75.0662 61.6161 75.1085 61.647L75.5556 61.9741L75.683 62.3496C75.7226 62.4661 75.8231 62.5512 75.9442 62.57C76.0174 62.5812 76.0907 62.5665 76.1533 62.5319L76.6313 63.7224L76.6043 63.8193L76.4801 63.8471L76.1462 63.3792C76.0928 63.3043 76.0101 63.255 75.9191 63.2435C75.8546 63.2354 75.7899 63.2473 75.7326 63.2758L75.3137 63.0127C75.2287 62.9593 75.1239 62.9482 75.0294 62.9817C74.9435 63.0122 74.8755 63.0771 74.8389 63.1601L74.6839 63.1349C74.5624 63.1149 74.4402 63.165 74.3667 63.2641C74.3186 63.329 74.2967 63.4079 74.3023 63.4858L74.2393 63.3953L74.1653 62.95C74.1487 62.8512 74.0877 62.765 74.0006 62.7161C73.9805 62.7048 73.9591 62.6963 73.9376 62.6896L74.1119 62.369C74.1686 62.2647 74.1649 62.1379 74.1029 62.0368L73.769 61.4932C73.7159 61.4068 73.6266 61.3506 73.5277 61.3387L73.4846 61.3362L73.2356 61.3394L72.9455 60.6181L72.912 60.5554L72.618 60.1236C72.5622 60.0417 72.4729 59.9906 72.3768 59.9815C72.4019 59.8854 72.3836 59.7816 72.3227 59.6997L72.1233 59.4314L72.4823 59.3752L72.7982 59.825Z" fill="#5456D1"/>
<path d="M32.288 59.9795L32.3105 60.9264C32.3114 60.9629 32.3195 60.9982 32.3317 61.0317L32.1863 60.98C32.0543 60.9328 31.9068 60.975 31.819 61.0847C31.7312 61.1945 31.7222 61.348 31.7964 61.4674L31.9515 61.7168L31.8627 61.6774C31.76 61.6318 31.6411 61.6423 31.5475 61.7046C31.4538 61.7669 31.3983 61.8729 31.4001 61.9857L31.4085 62.5118L31.054 62.6411C31.0044 62.6591 30.9602 62.6886 30.9247 62.727L30.8919 62.7684L30.8777 62.7891L30.7934 62.7206C30.7172 62.6586 30.6174 62.634 30.5213 62.6534C30.4492 62.6679 30.3846 62.7059 30.3373 62.7607L30.2961 62.8208L29.9313 63.502L29.7756 63.5453C29.7574 63.5504 29.7399 63.5579 29.7229 63.566L29.6798 63.3081C29.6589 63.1849 29.5703 63.0837 29.4514 63.047C29.3471 63.0149 29.235 63.0372 29.1509 63.1039L29.1168 63.1349L28.9933 63.2635L28.7417 63.0993L28.7475 62.4989C28.7484 62.3907 28.6964 62.2887 28.6086 62.2261L28.3769 62.0613L28.5622 61.4984L29.1651 61.0725L29.2905 61.0828L29.3195 61.2515C29.3396 61.3697 29.4217 61.4681 29.5344 61.5081C29.647 61.5479 29.7723 61.5235 29.8618 61.4441L30.4306 60.9406C30.4726 60.9033 30.5022 60.8559 30.5206 60.8049C30.5893 60.7838 30.6517 60.7415 30.695 60.6795L30.9054 60.3777C30.9447 60.3213 30.9657 60.2539 30.9652 60.185L30.9646 60.1721C31.011 60.1753 31.0585 60.1692 31.1035 60.1521C31.191 60.1188 31.2589 60.0499 31.2927 59.9647C31.3313 59.9793 31.3725 59.9879 31.4143 59.9873L31.7675 59.9815C31.829 59.9804 31.8895 59.962 31.9412 59.9285L32.0937 59.8289L32.288 59.9795Z" fill="#5456D1"/>
<path d="M65.1016 48.4452L65.164 48.8298C65.1726 48.8827 65.1936 48.933 65.2257 48.9758L65.5738 49.4386C65.6362 49.5216 65.7341 49.5707 65.8376 49.5705L66.2358 49.5692L66.8901 49.9919L66.8921 50.0655C66.8937 50.159 66.9345 50.2477 67.0046 50.3092L67.3958 50.6518C67.4352 50.6862 67.4828 50.7115 67.5335 50.7241L68.393 50.9374L70.2395 52.5655L70.5991 53.0289C70.6185 53.0538 70.6418 53.0759 70.6673 53.0942L71.2206 53.493L72.1477 54.5252C72.1567 54.5351 72.1666 54.5448 72.1767 54.5536L73.0079 55.2775L72.9699 55.6104C72.9588 55.7075 72.9906 55.805 73.0574 55.876C73.1243 55.947 73.2196 55.9845 73.3167 55.9788L73.6796 55.9568L73.7201 56.3194C73.7365 56.4658 73.8477 56.5841 73.9922 56.6089L74.3943 56.6774L74.6395 57.2152C74.7144 57.3793 74.9066 57.453 75.0712 57.3806L75.4269 57.2236L76.5445 57.5933C76.5924 57.6091 76.6438 57.6133 76.6937 57.6062L77.2663 57.5248L77.6543 57.7122C77.7017 57.735 77.7542 57.7461 77.8068 57.7445L77.9284 57.7406L78.03 57.9087C78.1029 58.0286 78.2433 58.0893 78.38 58.0599L78.8715 57.9546L79.0169 58.0922L79.0356 58.8672C79.0368 58.9157 79.0488 58.9634 79.0703 59.0068L79.3939 59.657C79.4014 59.6719 79.4101 59.6867 79.4197 59.7003L80 60.5224L79.9016 60.737C79.8928 60.7561 79.8854 60.7761 79.8803 60.7965L79.8713 60.8592L79.8147 61.9515L79.5664 62.5002L79.5445 62.4821C79.4271 62.3838 79.2596 62.3806 79.1385 62.4705L78.9204 62.1731L78.8883 61.912C78.878 61.8299 78.8372 61.7543 78.7744 61.7007L78.6406 61.5863L78.849 61.2521C78.9 61.17 78.9122 61.0691 78.8831 60.9768C78.8539 60.8845 78.786 60.8095 78.6972 60.7719L78.5074 60.6918C78.3664 60.6323 78.2066 60.6789 78.1175 60.7971L78.0834 60.8521L77.9303 61.1662L77.92 61.1584C77.7932 61.0649 77.6214 61.0761 77.5076 61.1765L77.4626 61.225L77.3982 61.309L76.6944 61.0052L76.6822 60.249C76.6799 60.1158 76.5981 59.9967 76.475 59.9472C76.3517 59.8978 76.2103 59.9276 76.1173 60.0228L75.647 60.505C75.6446 60.5074 75.6422 60.5102 75.6399 60.5127L75.7306 60.1282C75.7489 60.0503 75.7382 59.9682 75.701 59.8974L75.4746 59.467C75.419 59.3616 75.3108 59.2945 75.1921 59.2912C75.0882 59.2884 74.9903 59.3351 74.9264 59.4153L74.9013 59.4515L74.8093 59.6053L74.4156 59.233C74.3467 59.1679 74.253 59.1357 74.1589 59.1445C74.1379 59.1465 74.117 59.1503 74.0971 59.1561L74.0231 59.0281L74.1203 58.7664L74.3924 58.6746C74.4892 58.6417 74.5658 58.5655 74.5989 58.4684C74.632 58.3713 74.618 58.2638 74.5616 58.1782L74.294 57.773L74.276 57.1131C74.2729 57.0052 74.2177 56.9055 74.128 56.8461C74.0605 56.8016 73.9798 56.7835 73.9015 56.7944L73.825 56.8151L73.6191 56.8972L72.9648 56.5811L72.353 56.0421C72.3055 56.0003 72.2468 55.9727 72.1844 55.9633L71.1891 55.814L70.7851 54.5375C70.7508 54.4295 70.6632 54.3465 70.5541 54.3177L70.4286 54.2847L70.3489 53.8743C70.3258 53.7555 70.2402 53.6599 70.1282 53.6229L70.0787 53.6113L69.7724 53.5602L69.0866 53.0076L68.8505 52.667C68.7888 52.5783 68.688 52.5262 68.5822 52.5255L68.5371 52.5287L67.8089 52.625L66.7351 51.9425L65.6426 49.6002C65.5784 49.4626 65.4288 49.3867 65.2804 49.416C65.1505 49.4418 65.0503 49.5422 65.0224 49.6687L65.0154 49.7243L64.9845 50.3609C64.9821 50.4112 64.991 50.462 65.0109 50.5083L65.2264 51.0092C65.2371 51.0341 65.2511 51.058 65.2676 51.0796L65.8768 51.8778L65.8723 51.9179C65.8634 51.9893 65.8784 52.0617 65.9141 52.1241L66.1252 52.4918C66.0861 52.4607 66.0406 52.4387 65.992 52.4279L65.9212 52.4201L65.4863 52.4195C65.4377 52.4194 65.3897 52.4299 65.346 52.4505L65.3036 52.4744L65.1923 52.5481L65.0726 52.117C65.0663 52.0943 65.0571 52.0724 65.0462 52.0517L65.0076 51.9935L64.4717 51.3504C64.409 51.2753 64.3158 51.232 64.2182 51.2322C64.1205 51.2324 64.0278 51.2762 63.9654 51.3517L63.8431 51.4997L62.7224 51.1048C62.6721 51.0871 62.6185 51.0832 62.5667 51.0906L62.6799 50.9465L63.0389 50.834C63.1584 50.7964 63.2465 50.6939 63.266 50.5697L63.3439 50.0707C63.351 50.025 63.3488 49.9777 63.3368 49.933L63.2448 49.5918L63.2545 49.5892C63.4165 49.5447 63.5194 49.3848 63.4932 49.2182L63.4314 48.8311L63.7724 48.6456C63.8031 48.6288 63.8314 48.6071 63.8554 48.5816L64.3746 48.029L65.1016 48.4452Z" fill="#5456D1"/>
<path d="M30.0941 60.2432V60.3292L29.9776 60.3053L30.0812 60.2361L30.0941 60.2432Z" fill="#5456D1"/>
<path d="M70.7317 59.4592C70.7624 59.5082 70.806 59.5493 70.8591 59.5769L70.9678 59.6331L70.9819 59.9291L70.971 59.9278C70.9307 59.9218 70.89 59.9231 70.8513 59.9317L70.6892 59.5807L70.7317 59.4592Z" fill="#5456D1"/>
<path d="M66.9352 56.3426C66.9625 56.3568 66.9917 56.3676 67.022 56.3737L67.576 56.4835C67.6177 56.4917 67.6609 56.4918 67.7027 56.4835L67.8327 56.4577L67.9189 56.7466C67.9257 56.7694 67.935 56.7917 67.9465 56.8125L68.9109 58.5595L69.2275 59.624L68.4722 58.7218C68.4588 58.7058 68.4438 58.6909 68.4278 58.6778L68.375 58.6429L67.9665 58.4232L68.0115 58.2222C68.029 58.1436 68.0166 58.0613 67.9781 57.9908L67.5045 57.126C67.4936 57.1061 67.4806 57.0869 67.4659 57.0698L67.417 57.0232L66.7814 56.5314C66.8462 56.4945 66.8993 56.4371 66.9274 56.364L66.9352 56.3426Z" fill="#5456D1"/>
<path d="M32.2095 58.1776C32.2566 58.272 32.3459 58.3386 32.4501 58.3559C32.5577 58.3738 32.667 58.337 32.7422 58.2577L32.813 58.1821L33.0214 58.3385L33.0259 58.5014L32.5511 58.5634C32.4931 58.571 32.4378 58.5934 32.3916 58.6293L32.0975 58.8575L31.6015 58.9913C31.5532 59.0043 31.5092 59.0279 31.4722 59.0598L31.4317 59.0436L31.6845 58.5208L31.9451 58.4658C32.0642 58.4407 32.1602 58.3513 32.194 58.2338L32.2095 58.1776Z" fill="#5456D1"/>
<path d="M73.3026 58.6901L73.253 58.7224L73.1983 58.6972L73.208 58.6487L73.2852 58.6022L73.3026 58.6901Z" fill="#5456D1"/>
<path d="M70.7368 57.974L70.843 58.2144L70.8069 58.2409C70.7209 58.304 70.6705 58.4053 70.6718 58.5124L70.6738 58.7069L70.381 58.5608L70.0047 58.1343L69.9661 58.0063C70.0783 58.0394 70.2003 58.0111 70.2858 57.9294C70.3172 57.8994 70.3407 57.8636 70.3579 57.8253L70.7368 57.974Z" fill="#5456D1"/>
<path d="M72.2944 57.2611C72.3243 57.2911 72.3597 57.3156 72.3986 57.3322L73.0368 57.6036L73.0536 57.7122L72.959 57.8221L72.6412 57.8525C72.5447 57.8617 72.4571 57.9134 72.4018 57.9934L72.2449 58.2189L71.9586 58.1976C71.8791 58.1916 71.7997 58.2149 71.736 58.2629L71.6407 58.3346L71.4651 57.9029L71.2907 57.3457C71.2383 57.1782 71.0645 57.0807 70.8951 57.1241L70.7818 57.1525L70.7426 57.0846C70.7308 57.0642 70.7166 57.0451 70.7008 57.0278L70.648 56.9812L70.6049 56.9508L71.4773 56.9618C71.5176 56.9623 71.5579 56.9552 71.5957 56.9411L71.8736 56.8377L72.2944 57.2611Z" fill="#5456D1"/>
<path d="M68.1679 53.4051C68.2236 53.4112 68.2802 53.4018 68.3319 53.3799C68.3456 53.4015 68.3617 53.422 68.3802 53.44L68.7797 53.831C68.7695 53.8507 68.762 53.8717 68.7559 53.8931L68.7437 53.959L68.7141 54.3468C68.7051 54.4646 68.7593 54.5786 68.8563 54.6454L69.351 54.9854L69.6392 55.5839L69.4507 55.7971C69.4173 55.8348 69.3934 55.8796 69.38 55.9277L69.3697 55.9768L69.3343 56.2631L69.0763 56.7291L69.0004 56.5437L69.0113 56.1481C69.0125 56.1007 69.0034 56.0534 68.9849 56.0098L68.7321 55.4165C68.7257 55.4015 68.7181 55.3864 68.7096 55.3725L68.2972 54.701L68.191 54.3403L68.1749 54.2977L67.749 53.3586L68.1679 53.4051Z" fill="#5456D1"/>
<path d="M65.615 53.8026L65.5127 54.1154C65.4681 54.2519 65.5168 54.4019 65.6323 54.4864L65.817 54.6215C65.9081 54.688 66.0268 54.7032 66.1316 54.6616C66.2364 54.6199 66.3131 54.5272 66.3343 54.416L66.4025 54.0566L66.7576 54.0456L66.9821 54.1956L66.9911 54.8141C66.9923 54.9018 67.0283 54.9856 67.0909 55.0468C67.1535 55.1079 67.2377 55.1417 67.325 55.1405L67.3469 55.1398L67.5927 55.5923L67.5599 55.6129L66.5318 55.1696C66.4151 55.1193 66.2798 55.141 66.1844 55.2252C66.0889 55.3095 66.0499 55.4417 66.0846 55.5645L66.3034 56.3355C66.3043 56.3385 66.3057 56.3416 66.3066 56.3446L66.2365 56.3381L65.9778 56.0053C65.9616 55.9845 65.943 55.9653 65.9225 55.949L65.8549 55.9083L65.4117 55.7047L64.9208 55.1373C64.9047 55.1187 64.887 55.1013 64.8674 55.0868L64.8037 55.0506L64.4724 54.9052L64.4331 54.6325L64.5599 54.478C64.6176 54.4074 64.6436 54.3153 64.6319 54.2246L64.63 54.2117L65.1202 54.0947C65.1978 54.0761 65.2664 54.0295 65.3126 53.9642L65.4709 53.7399L65.615 53.8026Z" fill="#5456D1"/>
<path d="M6.35517 48.484C6.42501 48.5332 6.51149 48.5535 6.59579 48.5402L6.71417 48.5208L6.71803 48.5338C6.75634 48.6787 6.88713 48.78 7.03649 48.78H7.24623L7.37105 48.8905L7.2784 49.7023L7.14587 49.8645L6.7502 49.9718C6.68816 49.9886 6.63296 50.0234 6.59064 50.0707L6.55268 50.1224L6.55075 50.1244L6.19626 49.8354C6.16083 49.8066 6.11961 49.7855 6.07595 49.7734L6.03156 49.7644L5.83018 49.7372L5.36632 49.1594C5.32988 49.1141 5.28208 49.0793 5.22864 49.0586L5.17331 49.0431L5.02147 49.0127L4.82525 48.7903L4.81431 48.7296L5.20033 48.8963C5.31327 48.9449 5.44374 48.9261 5.53874 48.8479L5.8379 48.601L6.03928 48.6152C6.13222 48.6216 6.22379 48.5884 6.29083 48.5234L6.34102 48.4743L6.35517 48.484Z" fill="#5456D1"/>
<path d="M2.20482 34.5473L2.31483 34.7192L2.31933 35.1005C2.32053 35.2097 2.37563 35.3113 2.46602 35.372L2.98522 35.7204L3.12354 35.9492C3.16289 36.0139 3.22352 36.0634 3.29468 36.0888L3.86599 36.2917L3.46195 36.2827C3.41093 36.2815 3.36046 36.2922 3.31462 36.3137L3.27087 36.3389L2.97685 36.5367C2.95663 36.5503 2.93823 36.5668 2.92153 36.5845L2.9048 36.5509L2.63909 36.114C2.61018 36.0664 2.56957 36.0271 2.522 35.9996L2.47246 35.9763L2.30775 35.9149L2.26401 35.668C2.25164 35.5985 2.21714 35.5343 2.16621 35.4857L1.42184 34.7767C1.40247 34.7583 1.38055 34.7427 1.3575 34.7295L2.08 34.5001L2.20482 34.5473Z" fill="#5456D1"/>
<path d="M0.889132 34.5783C0.858975 34.5751 0.828359 34.5758 0.798417 34.5809L0.747591 34.5938L0.186576 34.7858L0.059833 34.6681L0 34.3889L0.205234 34.038L0.889132 34.5783Z" fill="#5456D1"/>
</svg>
