<svg width="80" height="80" viewBox="0 0 80 80" fill="none" xmlns="http://www.w3.org/2000/svg">
<path d="M56.6539 12.3358L56.6614 12.337L68.2503 14.1359L59.8958 72.5L42.8198 69.9531L33.0373 64.3787L12.7 52.3216L13.61 50.8973L15.2244 50.835C15.4147 50.8275 15.5882 50.7232 15.6844 50.5589L16.1594 49.7473C16.2054 49.6686 16.2316 49.5796 16.2355 49.4886L16.319 47.4684C16.3299 47.2028 16.1521 46.9663 15.8939 46.903L15.1397 46.7179L15.2743 43.5072L17.0857 42.5447C17.2339 42.4659 17.3386 42.3242 17.3712 42.1595L17.6729 40.633C17.6772 40.611 17.6799 40.5886 17.6816 40.5663L17.8518 38.2544L19.172 36.8824L20.3569 36.5034C20.4194 36.4834 20.4784 36.4527 20.5302 36.4124L21.985 35.2792C22.1038 35.1867 22.1803 35.0499 22.197 34.9002C22.2136 34.7505 22.1686 34.6002 22.0729 34.4839L20.6623 32.7678L20.0521 29.8862C20.046 29.8576 20.0376 29.8293 20.0272 29.802L19.9898 29.7235L18.9519 27.9208L19.1495 26.926L19.9574 25.7168C19.9981 25.6557 20.0266 25.5868 20.0409 25.5148L20.4298 23.5494C20.4451 23.4725 20.4442 23.3928 20.4267 23.3163L19.958 21.2668L20.5302 15.6687L22.9207 15.852L23.4131 16.9721C23.4917 17.1509 23.6582 17.2758 23.8519 17.3012L24.7345 17.4165C24.9348 17.4427 25.1342 17.3583 25.255 17.1965L26.4742 15.5603C26.5245 15.4928 26.5587 15.4141 26.5746 15.3315L28.0781 7.5L56.6539 12.3358Z" fill="#5456D1"/>
</svg>
