<svg width="80" height="80" viewBox="0 0 80 80" fill="none" xmlns="http://www.w3.org/2000/svg">
<path d="M63.7494 16.7314L62.5335 18.2241C62.5169 18.2444 62.5015 18.2661 62.4872 18.288L62.4467 18.3561L61.0127 21.1513C60.8892 21.3923 60.9046 21.6816 61.0532 21.9081C61.2018 22.1345 61.4613 22.2639 61.7318 22.247L68.0488 21.8509L67.9293 23.2452L66.7108 23.9759C66.511 24.0959 66.3772 24.3014 66.3496 24.5326L66.1113 26.5273L64.3733 28.8137C64.264 28.9575 64.2097 29.1364 64.2209 29.3166L64.4238 32.5928L63.554 34.7497L62.6732 35.0819C62.4536 35.1647 62.2846 35.3451 62.2169 35.5696C62.1493 35.7943 62.1905 36.038 62.328 36.2281L62.776 36.847L61.8203 37.55C61.7164 37.6263 61.6342 37.7276 61.5811 37.8435L61.5373 37.9646L60.9513 40.177L60.0419 40.6908C59.7918 40.8322 59.644 41.1039 59.6604 41.3905L59.7935 43.7105L58.2786 44.3656C57.9892 44.491 57.8085 44.7834 57.8256 45.0981L57.861 45.7464L55.7559 47.9673C55.5247 48.2113 55.4829 48.5794 55.654 48.8687L56.2889 49.9426L54.6899 51.8901C54.6417 51.9488 54.6022 52.0149 54.5737 52.0852L52.7397 56.6085C52.6161 56.9142 52.7057 57.2649 52.9612 57.4738L54.6107 58.8218L54.1922 59.5013C54.093 59.6622 54.0576 59.8547 54.0937 60.0403L54.6175 62.7295L54.135 64.0414L25.9485 64.894L21.3022 65L21.1632 58.1903C21.1575 57.9132 21.001 57.6647 20.7607 57.5386L20.6529 57.4923L18.9882 56.9255C18.8688 56.8849 18.7417 56.8753 18.6186 56.8961L18.4973 56.9272L16.9042 57.4789L16.1851 56.7212V31.8864C16.1851 31.8511 16.1825 31.8155 16.1775 31.7805L14.0488 16.8113L14.7839 16.8004C14.7892 16.8003 14.7947 16.8006 14.7999 16.8004L63.1195 15L63.7494 16.7314Z" fill="#F75A45"/>
<path d="M40.1933 27.2C40.5349 32.0152 44.3646 35.8793 49.1991 36.3371C49.1992 36.3525 49.2 36.3679 49.2 36.3833C49.2 36.3984 49.1992 36.4135 49.1991 36.4286C44.4885 36.8747 40.7329 40.5555 40.2274 45.1983C40.2078 45.1984 40.188 45.2 40.1683 45.2C40.1478 45.2 40.1271 45.1984 40.1066 45.1983C39.6041 40.5755 35.882 36.9069 31.2 36.4344V36.3314C36.0049 35.8462 39.8023 31.9943 40.1425 27.2C40.1509 27.2 40.1849 27.1999 40.1933 27.2Z" fill="#FFD47E"/>
</svg>
