<svg width="80" height="80" viewBox="0 0 80 80" fill="none" xmlns="http://www.w3.org/2000/svg">
<path d="M27.6666 4.30862L27.6703 4.30943L31.7987 5.46234L38.3189 7.37506C38.3222 7.37603 38.3258 7.37703 38.3291 7.37791L43.1655 8.6475L38.0479 28.3962C38.0222 28.4953 38.0398 28.6009 38.0961 28.6865L43.1332 36.3488L43.1353 36.352L48.1855 43.8529L52.1475 49.8378L52.1504 49.8427L55.1607 54.2413L60.2338 62.019L60.0928 62.7288C60.0756 62.8152 60.0903 62.9053 60.1345 62.9817L60.8544 64.2252L61.2619 66.1359C61.2741 66.1931 61.2998 66.2469 61.3371 66.292L62.0803 67.1901L61.4741 67.6596L60.6708 67.9153C60.613 67.9337 60.5604 67.9661 60.5183 68.0096L59.4968 69.0654C59.4524 69.1113 59.4211 69.1677 59.4056 69.2288L59.3954 69.2914L59.2752 70.9094L59.1166 71.7111L57.8972 72.3562C57.7968 72.4093 57.7276 72.5051 57.7083 72.6148L57.703 72.6627L57.5938 75.2629C57.5866 75.4361 57.7034 75.5903 57.8726 75.6316L58.3664 75.7524L58.328 76.6813L58.1641 76.9606L57.1458 77L49.492 76.0869L43.6009 75.3714L43.1676 74.595L43.4599 73.3193C43.4661 73.2919 43.469 73.2636 43.4688 73.2355L43.4549 71.4871C43.4548 71.4654 43.4524 71.4436 43.4484 71.4224L43.4304 71.3598L42.9129 70.0158C42.9079 70.0029 42.9021 69.9899 42.8957 69.9776L42.8741 69.9414L41.4891 67.912C41.4777 67.8954 41.465 67.8794 41.451 67.8649L39.47 65.7997C39.362 65.6871 39.1961 65.6566 39.0572 65.7176L38.9995 65.7497L38.7113 65.9432L38.4951 65.8009L38.6664 65.5111C38.7233 65.4146 38.7326 65.2969 38.6913 65.1928L38.054 63.5862C38.0004 63.4511 37.8708 63.3605 37.7249 63.3557L36.4151 63.313L34.5421 61.9097L34.3871 61.1409C34.3737 61.0744 34.3418 61.0127 34.2951 60.9633L33.003 59.5924C32.9659 59.5531 32.9205 59.5227 32.8705 59.503L32.819 59.4872L31.1434 59.0977L29.9722 58.3314C29.9276 58.3022 29.877 58.283 29.8242 58.2753L28.0202 58.0119L27.4875 57.1455L28.1109 55.504C28.1412 55.4241 28.1421 55.3358 28.1138 55.2552L28.0439 55.0568L28.5353 53.9039C28.5906 53.7737 28.565 53.6231 28.4699 53.5181L27.3477 52.2798L27.6645 51.1041C27.7123 50.9267 27.6193 50.7416 27.4483 50.6724L27.0583 50.5147L26.6704 49.317C26.6464 49.243 26.599 49.1783 26.5355 49.1329L26.0114 48.758L26.0147 48.195C26.0149 48.1494 26.0067 48.1038 25.9901 48.0613L24.6934 44.7314C24.684 44.7071 24.6715 44.6836 24.6571 44.6619L24.0312 43.7216L24.3096 42.2499C24.3506 42.2579 24.3933 42.2593 24.4355 42.2528C24.5418 42.2364 24.6356 42.1741 24.6918 42.0828L25.4252 40.8905C25.4797 40.8018 25.4932 40.694 25.4628 40.5945L25.0466 39.2347C25.0098 39.1143 24.9136 39.0225 24.794 38.9896L24.7413 38.9794L23.9404 38.8806L23.0922 37.674L22.9859 36.8931L23.1956 36.1638C23.2113 36.1091 23.2137 36.0514 23.203 35.9955L22.9806 34.8414L23.3583 33.5283L23.9188 33.6876C24.0212 33.7167 24.1314 33.7002 24.2205 33.6421C24.3095 33.584 24.3689 33.4898 24.3828 33.3848L24.7188 30.8358C24.7352 30.7117 24.6861 30.5877 24.5892 30.5078C24.4922 30.428 24.3609 30.4032 24.2413 30.4423L23.808 30.5838C23.7229 30.6116 23.6513 30.6694 23.6065 30.7456L23.5889 30.7797L23.1543 31.7322L22.5882 31.7229L21.7882 30.7114L22.0392 29.2491C22.0477 29.1992 22.0459 29.1479 22.0334 29.0987L21.67 27.6677C21.6606 27.6308 21.6453 27.5954 21.6251 27.5633L21.603 27.532L20.794 26.5067L20.5332 25.5485C20.5302 25.5374 20.5266 25.5263 20.5225 25.5156L20.509 25.4839L19.5504 23.5329L19.8153 23.3337C19.9083 23.2637 19.9623 23.1534 19.9605 23.0374L19.9212 20.7084L20.5839 19.6908C20.621 19.6338 20.6415 19.5673 20.6427 19.4994L20.6799 17.4627C20.6806 17.4239 20.6751 17.3851 20.6636 17.348L19.9809 15.1686C19.9758 15.1524 19.9694 15.1364 19.9621 15.1211L19.9367 15.0759L19.0803 13.7897L19.1012 12.7099L21.1267 10.3017C21.1322 10.2952 21.1373 10.2882 21.1423 10.2813L21.798 9.38087C21.8527 9.30573 21.8765 9.21228 21.8646 9.12029L21.7677 8.37959L22.8244 6.66933C22.8528 6.62336 22.8709 6.57172 22.8768 6.5181L23.084 4.60985C23.0927 4.52953 23.0743 4.44855 23.0317 4.37976L22.7558 3.93502L23.1682 3L27.6666 4.30862Z" fill="#FF7866"/>
</svg>
