<svg width="80" height="80" viewBox="0 0 80 80" fill="none" xmlns="http://www.w3.org/2000/svg">
<path d="M23.8829 17.0648L23.8874 17.0654L41.7618 19.1566C41.7671 19.1572 41.7727 19.158 41.7779 19.1585L55.1514 20.3499L55.1598 20.3505L70.8291 21.5105L70.1662 31.8275L70.1655 31.8327L68.3949 64L49.1192 62.5464L27.5066 60.3645L23.0262 59.7832H23.0249L9.8291 58.0859L11.5006 46.034C11.5069 45.9885 11.508 45.9421 11.5032 45.8965L11.3809 44.7377L15.3766 16L23.8829 17.0648Z" fill="#F75A45"/>
<path d="M40.1933 31.2C40.5349 36.0153 44.3646 39.8794 49.1991 40.3372C49.1992 40.3526 49.2 40.368 49.2 40.3834C49.2 40.3985 49.1992 40.4136 49.1991 40.4287C44.4885 40.8748 40.7329 44.5556 40.2274 49.1984C40.2078 49.1984 40.188 49.2 40.1683 49.2C40.1478 49.2 40.1271 49.1984 40.1066 49.1984C39.6041 44.5756 35.882 40.907 31.2 40.4344V40.3314C36.0049 39.8462 39.8023 35.9944 40.1425 31.2C40.1509 31.2 40.1849 31.2 40.1933 31.2Z" fill="#FFD47E"/>
</svg>
