<svg width="80" height="80" viewBox="0 0 80 80" fill="none" xmlns="http://www.w3.org/2000/svg">
<path d="M73.3832 36.1317L72.7226 38.734L72.1264 38.7095C71.7666 38.6948 71.4073 38.7518 71.0714 38.8747L70.7411 39.0215L56.3352 46.5623L36.789 50.3725C36.3195 50.4642 35.8845 50.6755 35.5261 50.9841L35.1927 51.3265L28.0433 60.0569L19.8878 64.4359C19.7876 64.4896 19.6899 64.5506 19.5973 64.6163L19.3313 64.8303L12.3806 71.2L11.659 70.2643L17.8146 64.1882C18.3352 63.6736 18.6278 62.9693 18.628 62.2372C18.6277 61.5059 18.3344 60.8037 17.8146 60.2893L14.7842 57.2987L8.7998 21.9705L21.9366 19.2367C21.9589 19.232 21.9817 19.2266 22.0039 19.2214L66.2735 8.79999L73.3832 36.1317Z" fill="#5456D1"/>
</svg>
