<svg width="80" height="80" viewBox="0 0 80 80" fill="none" xmlns="http://www.w3.org/2000/svg">
<path d="M53.0773 15.6922C53.1138 15.7007 53.1513 15.7052 53.1888 15.7052L55.0373 15.7041L55.8362 19.2386C55.8425 19.2664 55.8513 19.2939 55.8623 19.3202L57.6532 23.5758C57.661 23.5942 57.6699 23.6123 57.6799 23.6296L60.8135 29.079C60.8271 29.1025 60.8425 29.125 60.8598 29.1459L65.2236 34.4386L65.0289 34.6448C64.9128 34.7674 64.8682 34.9416 64.9114 35.1049L65.6652 37.9481C65.6785 37.998 65.6996 38.0457 65.7278 38.089L67.6628 41.0638L70.9977 47.1207L71.8667 48.9284L72.2023 50.9086L72.5743 58.0896L72.0783 58.2582C71.9341 58.3072 71.8221 58.4203 71.7737 58.5622L71.7569 58.6247L71.2712 61.072C71.2479 61.1895 71.269 61.3115 71.33 61.4147L71.5959 61.8661L70.8062 63.1642L70.5561 63.0391C70.4251 62.9735 70.2726 62.9709 70.1406 63.0293L70.0851 63.0582L68.5036 64.0159L66.2988 64.7001L65.904 64.2421L65.9703 63.0293C65.9764 62.9181 65.9441 62.8081 65.879 62.7177L63.2212 59.0353C63.1749 58.9712 63.1139 58.9197 63.0439 58.8847L62.9704 58.8553L61.414 58.3718C61.2936 58.3345 61.1639 58.3456 61.0523 58.4012L61.0055 58.4278L60.3556 58.8461L59.4343 57.2482L58.8932 55.5503C58.8729 55.4869 58.8398 55.4283 58.7964 55.3785L58.7491 55.3317L56.7727 53.6055L56.1152 52.5483L56.1163 50.7063C56.1164 50.4869 55.97 50.2941 55.7585 50.2358L54.8437 49.9846C54.6643 49.9352 54.472 49.9924 54.3488 50.132C54.2258 50.2715 54.1928 50.4691 54.264 50.641L54.5511 51.3339L54.4951 51.3654L51.4664 47.1669C51.454 47.1497 51.4407 47.1328 51.4262 47.1174L51.3794 47.0739L50.3711 46.2521L52.2338 42.6339C52.3216 42.4632 52.3008 42.2569 52.181 42.1069C52.0611 41.9569 51.8644 41.8913 51.6785 41.9394L50.0051 42.3723C49.9248 42.3931 49.8515 42.4339 49.7919 42.4903L49.7375 42.5518L49.179 43.2952L48.5563 42.3451L49.2519 37.3869C49.2566 37.3528 49.2576 37.3179 49.2551 37.2835L48.9506 33.1062C48.941 32.9752 48.8792 32.8542 48.7803 32.7701L48.7357 32.7364L47.6083 31.9832L47.1977 30.8405C47.1402 30.6807 47.0043 30.5639 46.8415 30.5289L46.7703 30.5191L45.4971 30.4375L43.3701 28.6173C43.3538 28.6033 43.3364 28.5903 43.3185 28.5787L43.2624 28.5471L41.9882 27.9413L41.8452 26.8677C41.8203 26.6812 41.6899 26.5254 41.5107 26.468L40.479 26.1379L39.5463 24.8914C39.5117 24.8451 39.469 24.8052 39.4207 24.7739L39.3701 24.7456L36.0679 23.1298C35.9686 23.0814 35.8561 23.0682 35.7492 23.0918L35.7035 23.1043L33.2741 23.8934C33.0522 23.9655 32.9122 24.185 32.9407 24.4166L33.0321 25.1606L32.8107 25.1258C32.6902 25.1066 32.5666 25.1329 32.4649 25.2003L29.403 27.2278L26.7376 27.8885L26.687 27.436C26.6759 27.3371 26.6346 27.2438 26.569 27.169L25.6015 26.0666C25.571 26.032 25.5359 26.0016 25.4971 25.9769L25.4574 25.9541L21.0038 23.677C20.9774 23.6635 20.9495 23.6523 20.9211 23.6438L18.0365 22.7823C18.0142 22.7756 17.991 22.7705 17.968 22.7671L17.8984 22.7622L15.1063 22.7519C15.0911 22.7518 15.0757 22.7527 15.0606 22.754L15.0155 22.7606L12.8232 23.1679L12.7802 23.1782L9.44535 24.1153L9.67594 23.7776C9.80053 23.5949 9.78635 23.3514 9.64168 23.1842L9.15548 22.6224L9.27839 21.3156C9.29263 21.1624 9.23334 21.0112 9.11904 20.9082L7.5 19.4502L7.58103 18.8595L23.3793 17.2829C23.3834 17.2825 23.3877 17.2818 23.3918 17.2813L26.8937 16.8391L28.1385 19.0613C28.2304 19.2252 28.4085 19.3216 28.5959 19.3093L39.3815 18.5936H39.3848L49.2328 17.8774L49.6831 19.4164C49.7537 19.6576 49.996 19.8059 50.2427 19.7585L51.3353 19.5481C51.5647 19.5038 51.7308 19.3025 51.7307 19.0689L51.7296 17.1682C51.7296 17.1179 51.7216 17.0676 51.7062 17.0197L51.2483 15.5899L51.4088 15.3L53.0773 15.6922Z" fill="#5456D1"/>
</svg>
