<svg width="80" height="80" viewBox="0 0 80 80" fill="none" xmlns="http://www.w3.org/2000/svg">
<path d="M61.4294 20.5049C61.4392 20.7015 61.528 20.8861 61.6751 21.0169L62.7089 21.9352L62.029 23.1484C61.9477 23.2935 61.9184 23.4626 61.9455 23.6268L62.4574 26.7396C62.4655 26.7883 62.4784 26.8361 62.4959 26.8821L63.3159 29.03C63.3899 29.2236 63.5423 29.3767 63.7353 29.4519L67.0923 30.7576L67.7763 32.2018C67.809 32.2708 67.8519 32.3346 67.9041 32.3903L70.0675 34.6921L70.4607 35.9668C70.5228 36.1682 70.6684 36.3332 70.8605 36.4198L73.0329 37.3987L73.1116 38.6536L72.9453 40.9932L71.8353 41.8263C71.6382 41.9742 71.5281 42.2118 71.5429 42.4579L71.6428 44.1339L68.9821 45.7772L65.1689 46.6242C64.9284 46.6776 64.733 46.8471 64.6446 47.0723L64.6135 47.1722L64.0196 49.6895C63.9671 49.912 64.0214 50.1467 64.1662 50.3236L65.5654 52.0315L65.6637 53.8861L64.4972 55.1214C64.4161 55.2073 64.3574 55.3113 64.3251 55.4237L64.3022 55.5392L64.09 57.3144L61.5572 58.8094C61.323 58.9478 61.1846 59.2045 61.1976 59.4762L61.2606 60.7999L59.1635 58.3834C59.0252 58.224 58.8262 58.1327 58.618 58.1303L58.5287 58.1352L57.458 58.2531L42.871 59.1501L28.6363 59.6064L16.9991 59.4925L16.2586 58.263L16.9254 54.9584C16.9514 54.8296 16.9425 54.6959 16.8992 54.5718L15.8449 51.5482L15.8425 48.1642C15.8423 47.9229 15.7235 47.6965 15.5246 47.5597L13.9682 46.4882L13.7077 45.1054L14.3409 43.6342C14.4087 43.4765 14.4193 43.2999 14.3704 43.1353L13.6545 40.7245C13.6178 40.6009 13.5493 40.4897 13.457 40.4018L13.3571 40.3223L12.1529 39.5211L10.4638 33.4994C10.4553 33.4693 10.4449 33.4397 10.4327 33.4109L10.3901 33.3266L8.80005 30.6159L9.41361 28.8244C9.42901 28.7794 9.43994 28.7331 9.44638 28.686L9.78961 26.1654L10.3999 25.2946C10.5818 25.034 10.575 24.6857 10.3835 24.432L9.5201 23.2876L9.83958 21.1914C9.86508 21.0235 9.83137 20.8516 9.74455 20.7056L9.57826 20.4263L9.90183 20.3607L60.3251 19.2516C60.3317 19.2514 60.3383 19.2511 60.3448 19.2507L61.3638 19.2L61.4294 20.5049Z" fill="#F75A45"/>
<path d="M40.1933 29.2C40.5349 34.0152 44.3646 37.8793 49.1991 38.3371C49.1992 38.3525 49.2 38.3679 49.2 38.3833C49.2 38.3984 49.1992 38.4135 49.1991 38.4286C44.4885 38.8747 40.7329 42.5555 40.2274 47.1983C40.2078 47.1984 40.188 47.2 40.1683 47.2C40.1478 47.2 40.1271 47.1984 40.1066 47.1983C39.6041 42.5755 35.882 38.9069 31.2 38.4344V38.3314C36.0049 37.8462 39.8023 33.9943 40.1425 29.2C40.1509 29.2 40.1849 29.1999 40.1933 29.2Z" fill="#FFD47E"/>
</svg>
