<svg width="80" height="80" viewBox="0 0 80 80" fill="none" xmlns="http://www.w3.org/2000/svg">
<path d="M50.5772 25.0549L50.9921 25.9918C51.0902 26.2133 51.3076 26.3585 51.5498 26.3647L54.2884 26.4326L56.2566 27.7032C56.4686 27.84 56.7424 27.8357 56.9507 27.6935L58.2368 26.8139L61.2951 27.224C61.5102 27.2527 61.7248 27.1683 61.8626 27.0008L62.8799 25.7623L63.3158 25.5671L63.7006 26.8251C63.7658 27.038 63.9396 27.2006 64.1561 27.2519L64.9965 27.4507L66.1943 28.5905L66.3623 31.9154C66.3687 32.0417 66.4137 32.1632 66.4903 32.2638L68.0982 34.3713C68.1144 34.3925 68.1319 34.4132 68.1507 34.4322L69.6396 35.9365L70.4471 37.154C70.4967 37.2288 70.5626 37.2919 70.6388 37.3394L72.4482 38.4645C72.5383 38.5205 72.6414 38.5514 72.747 38.5569L70.5786 41.1366L67.3383 43.3938C67.1448 43.5288 67.0433 43.7612 67.076 43.9949L67.1487 44.5161L66.23 45.2795C66.0634 45.418 65.98 45.633 66.0096 45.8476L66.0796 46.3549L64.6466 46.9364C64.46 47.0121 64.3227 47.1725 64.2744 47.3646L64.259 47.4492L64.1484 48.4456L59.4605 50.6671C59.3712 50.7094 59.2951 50.7708 59.2366 50.8448L51.8164 51.6607L44.5865 52.1316L44.5102 52.1414L42.924 52.4415L32.4181 53.0468L32.3804 53.0503L20.6829 54.4434L18.763 54.069C18.5542 54.0286 18.3387 54.0969 18.1913 54.2502C18.0439 54.4039 17.9841 54.6224 18.0332 54.8296L18.3732 56.2612L8.80005 56.9C8.82031 56.8444 8.83397 56.786 8.83783 56.7257L9.14919 51.8769C9.157 51.7547 9.12862 51.6327 9.06803 51.5263L8.86302 51.166L9.71734 49.577L10.212 49.4762L13.7672 50.9365C14.0197 51.0402 14.3103 50.9687 14.4857 50.7595L15.3869 49.6848C15.5492 49.4912 15.5789 49.2186 15.4632 48.9942L14.7838 47.6759L14.9119 46.9595L18.0738 45.7364C18.2299 45.6759 18.3554 45.5554 18.4222 45.4019C18.489 45.2485 18.4913 45.0746 18.4292 44.9192L17.705 43.1077L18.3956 41.6439L19.0792 40.7035L21.0677 40.4208C21.2019 40.4018 21.3266 40.3395 21.4225 40.2438L21.8654 39.8016L22.1411 40.0899C22.3164 40.2733 22.5854 40.333 22.8219 40.241L23.7839 39.866L25.9383 41.2311C26.0953 41.3305 26.2889 41.355 26.4659 41.2983C26.6428 41.2414 26.7851 41.1087 26.8549 40.9365L27.3027 39.8296L28.9463 38.8773L29.1212 39.3384C29.2377 39.6451 29.5714 39.8102 29.886 39.7169L32.1019 39.0578C32.2667 39.0088 32.4046 38.8942 32.4825 38.7409C32.5603 38.5876 32.5716 38.4089 32.514 38.2469L32.2082 37.3877L33.2718 36.5159L33.4404 37.0014C33.4969 37.1646 33.6188 37.298 33.7762 37.3688L35.8249 38.2875C36.0658 38.3953 36.3489 38.3408 36.5323 38.151L37.4125 37.2393C37.4947 37.1543 37.5514 37.0479 37.5756 36.9322L38.157 34.1495L39.4186 33.5492C39.5774 33.4736 39.6973 33.3347 39.7488 33.1664L40.1686 31.7915L41.5022 30.742C41.6963 30.5892 41.7827 30.3365 41.7226 30.0969L41.3574 28.6394L43.08 28.8186C43.2551 28.8366 43.43 28.7802 43.5614 28.6632L44.8866 27.4828L46.2881 27.2631C46.4691 27.2347 46.6287 27.1288 46.7247 26.9728C46.8208 26.8168 46.8437 26.6266 46.7877 26.4522L45.8823 23.6401L46.0523 23.4498L48.9609 23.1L50.5772 25.0549Z" fill="#F75A45"/>
<path d="M53.1933 29.2C53.5349 34.0152 57.3646 37.8793 62.1991 38.3371C62.1992 38.3525 62.2 38.3679 62.2 38.3833C62.2 38.3984 62.1992 38.4135 62.1991 38.4286C57.4885 38.8747 53.7329 42.5555 53.2274 47.1983C53.2078 47.1984 53.188 47.2 53.1683 47.2C53.1478 47.2 53.1271 47.1984 53.1066 47.1983C52.6041 42.5755 48.882 38.9069 44.2 38.4344V38.3314C49.0049 37.8462 52.8023 33.9943 53.1425 29.2C53.1509 29.2 53.1849 29.1999 53.1933 29.2Z" fill="#FFD47E"/>
</svg>
