<svg width="80" height="80" viewBox="0 0 80 80" fill="none" xmlns="http://www.w3.org/2000/svg">
<path d="M43.1276 12.1889L42.8573 12.4325C42.7267 12.5499 42.639 12.7066 42.6065 12.8777L42.5958 12.9518L42.3076 15.9884C42.2817 16.2614 42.3977 16.5292 42.6145 16.697L44.6366 18.2603L44.8481 22.267L43.8156 25.4455L40.9976 27.5898C40.8451 27.7059 40.7392 27.8734 40.6996 28.0609L40.149 30.6594L40.0705 30.6362C39.8331 30.5649 39.5759 30.6078 39.3744 30.7522C39.1981 30.8789 39.0815 31.071 39.0496 31.2832L39.0416 31.3751L38.8765 36.2848L38.1805 36.3999C37.9465 36.4386 37.742 36.5799 37.6219 36.7845C37.5019 36.9889 37.4784 37.2359 37.5585 37.4591L38.45 39.9425L37.853 40.7491C37.6685 40.9982 37.6443 41.332 37.7914 41.6049C37.9386 41.8777 38.2306 42.0406 38.5401 42.0234L61.8864 40.7143L61.0628 44.7665C61.0211 44.9719 61.0619 45.1859 61.1761 45.3617L63.1304 48.3671L63.7211 50.7327C63.7654 50.91 63.8689 51.0669 64.0147 51.1771L64.9864 51.9106L62.0524 53.6301C61.7917 53.7829 61.6395 54.07 61.6589 54.3716L61.7553 55.8699C61.7781 56.2238 62.0313 56.5209 62.3772 56.5989L65.6414 57.3324C66.0017 57.4133 66.3705 57.237 66.5338 56.9059L67.3181 55.3104L69.0635 56.615L68.8744 57.7393L68.0971 58.3086L65.1712 57.7982C64.8857 57.7484 64.5953 57.8571 64.4127 58.082C64.2303 58.3068 64.1833 58.6126 64.2904 58.8815L64.733 59.9907L64.0575 61.895C63.9384 62.2308 64.056 62.6058 64.3457 62.8132L66.772 64.5488C66.8937 64.6359 67.0376 64.6875 67.187 64.6969L70.9857 64.9343L72.3117 66.8055C72.4371 66.9825 72.63 67.1003 72.8444 67.133L72.889 67.1393L71.8994 68.3912L70.3191 68.1842L68.4933 65.9596C68.41 65.8581 68.3037 65.7786 68.1837 65.7285L68.0588 65.6883L63.9317 64.7148L63.8023 62.7052C63.7859 62.4513 63.649 62.2203 63.4347 62.0833C63.2471 61.9634 63.0194 61.9272 62.8064 61.9815L62.7163 62.011L60.0116 63.0541C59.6267 63.2029 59.4184 63.6207 59.5307 64.0178L60.0286 65.7784L59.1122 67.2722L58.5875 67.4266L57.4015 65.7668C57.2458 65.549 56.991 65.4231 56.7234 65.4322L53.4922 65.5429C53.2014 65.5529 52.9421 65.7196 52.8104 65.9721L52.7622 66.0854L52.0805 68.0914L50.9499 68.6L48.9118 67.4953C48.83 67.451 48.741 67.4216 48.6494 67.4079L48.5575 67.3989L47.2083 67.3543L45.8377 64.1847C45.7786 64.0482 45.6832 63.9317 45.5628 63.8474L45.4343 63.7742L42.1327 62.276C41.9547 62.1953 41.7528 62.1826 41.566 62.2403L41.309 62.3197L40.0856 59.8399C39.9489 59.5628 39.6671 59.3925 39.3655 59.3937L39.2361 59.4044L36.9339 59.7917L36.8911 58.8021C36.8791 58.5262 36.7256 58.2756 36.485 58.14C36.2443 58.0044 35.9501 58.0028 35.7078 58.1355L32.1152 60.1049C31.768 60.2953 31.6123 60.7114 31.7494 61.0829L32.0439 61.8807L30.5795 62.815L26.8138 62.3831L22.2531 60.4521L22.1264 60.411L18.8863 59.6418C18.8402 59.6309 18.7933 59.6239 18.7462 59.6213L18.6043 59.6257L11.2791 60.5306C11.179 60.543 11.0824 60.5745 10.9944 60.6225L10.9096 60.676L10.6883 60.8349L10.4358 60.4413L12.8639 55.4067C12.9548 55.2182 12.9684 55.0018 12.9013 54.8035L12.0304 52.23L12.7372 50.9334C12.8326 50.7582 12.8598 50.5535 12.8121 50.3597L12.4061 48.7151L13.4626 47.4917C13.5336 47.4095 13.587 47.3133 13.6197 47.2097L14.8788 43.2165C14.9054 43.132 14.9177 43.0435 14.9154 42.955L14.8324 39.7872C14.8296 39.6816 14.8065 39.5778 14.7637 39.482L14.7137 39.3892L11.0747 33.4801L11.006 30.4471C11.002 30.2693 10.9386 30.0986 10.8275 29.9616L10.7776 29.9054L7.79626 26.8688L7.5 12.4209L12.4329 12.3084H12.4391L42.4628 11.4L43.1276 12.1889Z" fill="#F75A45"/>
<path d="M26.1933 21.2C26.5349 26.0152 30.3646 29.8793 35.1991 30.3371C35.1992 30.3525 35.2 30.3679 35.2 30.3833C35.2 30.3984 35.1992 30.4135 35.1991 30.4286C30.4885 30.8747 26.7329 34.5555 26.2274 39.1983C26.2078 39.1984 26.188 39.2 26.1683 39.2C26.1478 39.2 26.1271 39.1984 26.1066 39.1983C25.6041 34.5755 21.882 30.9069 17.2 30.4344V30.3314C22.0049 29.8462 25.8023 25.9943 26.1425 21.2C26.1509 21.2 26.1849 21.1999 26.1933 21.2Z" fill="#FFD47E"/>
</svg>
