<svg width="80" height="80" viewBox="0 0 80 80" fill="none" xmlns="http://www.w3.org/2000/svg">
<path fill-rule="evenodd" clip-rule="evenodd" d="M57.4629 23.1L63.302 45.4759L72.5 43.6424L71.2708 51.7766L69.3932 52.4867L65.7574 54.4613L63.0043 55.8411L62.3798 52.9342L61.1496 51.924L62.3404 50.3927L59.7637 47.8076L59.077 49.3265L56.1144 49.6608L54.4588 46.5795L55.4235 46.376L54.5356 42.1547L55.1403 40.2621L52.9951 34.8356L53.715 31.1563L55.9795 30.0859L55.2378 26.6173L53.9121 27.3908L54.271 29.0778L50.9516 32.2287L50.407 34.3995L51.5034 39.6548L50.5688 42.3956L51.909 46.4268L54.4277 48.8396L54.3955 51.0997L56.3021 52.9528L55.6455 54.6586L52.1487 52.4493L47.0118 52.0361L45.4911 49.5071L42.8884 51.597L41.4891 49.6276L43.3583 46.4165L43.7546 43.4016L45.2971 41.1321L43.014 39.7368L42.2806 41.0584L40.0202 39.7524L36.9539 39.3849L36.4342 36.751L34.7195 35.6235L32.7309 35.6215L29.8534 31.0047L27.9457 31.3732L25.2383 30.1336L24.0744 31.8165L21.6709 32.1716L21.5631 34.2386L17.4947 33.6271L15.1047 36.7915L13.5663 36.4852L11.2448 40.1137L8.64314 42.2284L7.5 32.8911L57.4629 23.1ZM60.4125 55.6114L61.3834 55.4038L60.8979 55.5076L60.4125 55.6114Z" fill="#FF7866"/>
</svg>
