<svg width="80" height="80" viewBox="0 0 80 80" fill="none" xmlns="http://www.w3.org/2000/svg">
<path fill-rule="evenodd" clip-rule="evenodd" d="M10.1001 24.8544L12.7832 23.6078L13.9512 22.2883L16.9079 21.6019L18.786 19.8994L19.7752 19.7726L20.4397 18.6409L22.5518 16.9646L23.4379 15.5964L25.0987 14.6504L26.6357 15.2248L24.1777 18.6208L23.7637 19.6825L23.9183 21.6202L25.0442 20.0666L27.546 20.0743L29.6226 20.9231L31.6186 23.5646L32.4164 24.0346L34.1193 23.3867L34.6808 23.9848L36.46 24.1384L40.211 21.3689L42.1792 20.9439L44.6775 20.7797L46.327 19.7797L47.8101 19.555L48.3941 22.4252L49.6847 22.6552L51.1287 22.047L51.705 22.6315L52.597 21.6511L54.5545 21.1359L55.2552 24.7003L56.1963 26.1088L57.7553 26.3459L57.8737 25.2931L59.1252 25.1301L60.0178 26.104L59.3645 26.9553L55.5182 26.7952L53.5636 27.4745L51.4071 26.4822L51.0399 27.6707L51.4065 28.6091L50.3747 28.5137L48.9485 27.2084L46.5983 26.6601L45.3379 26.7466L44.4814 28.2025L42.5043 28.7425L40.4633 28.6844L39.7644 29.3003L39.627 30.458L37.4521 31.656L37.5717 30.2831L36.537 30.1124L36.168 31.5635L34.6571 31.7627L33.9546 32.4272L32.911 34.9738L31.1566 38.291L31.4362 38.5387L30.3209 37.547L30.7024 36.0431L28.9036 35.9815L29.545 34.5108L29.3863 32.675L28.0157 31.5416L26.8975 30.3311L23.7903 29.5504L22.8119 30.0069L19.6733 28.6678L12.2477 27.1082L11.3866 25.3731L10.1001 24.8544ZM55.7176 71.5634L55.6341 70.858L46.5454 71.8758L40.3891 72.5L41.5938 71.0103L42.429 68.5669L43.35 67.047L43.9458 65.0108L43.9197 62.1613L43.6005 59.0694L40.6337 53.291L41.1863 50.9371L40.395 48.2814L41.6649 45.3644L41.9403 42.9862L41.5553 41.7692L42.7867 41.1497L42.6108 39.4745L44.6027 38.7715L45.6783 36.7975L46.0858 40.522L46.8723 40.5996L47.4285 38.6245L47.3325 35.4674L47.7495 34.6013L49.723 33.884L48.709 31.7631L49.7526 29.7322L51.5029 29.4163L53.41 30.3867L55.1946 30.3303L56.1405 31.7412L57.6704 31.6564L60.1201 32.7056L60.8723 32.5515L62.1795 34.6215L61.5683 35.8527L62.5402 37.3121L63.2818 38.9659L63.2829 42.8599L61.8697 44.0354L61.8751 46.065L60.1515 46.9477L59.4206 49.4563L60.0561 50.3082L61.7193 50.9169L63.1058 49.416L64.3046 46.5648L66.7437 45.1877L68.1457 45.8161L69.1253 47.1617L70.5148 51.3645L70.8151 53.4683L71.9701 55.9461L71.7166 59.7843L70.7476 60.5282L70.2939 59.2146L69.5583 59.7037L69.2035 62.9486L67.7731 64.3025L67.5658 66.7554L65.9725 69.0085L66.0868 69.8746L55.7176 71.5634Z" fill="#F75A45"/>
<path d="M54.1933 46.2C54.5349 51.0153 58.3646 54.8794 63.1991 55.3372C63.1992 55.3526 63.2 55.368 63.2 55.3834C63.2 55.3985 63.1992 55.4136 63.1991 55.4287C58.4885 55.8748 54.7329 59.5556 54.2274 64.1984C54.2078 64.1984 54.188 64.2 54.1683 64.2C54.1478 64.2 54.1271 64.1984 54.1066 64.1984C53.6041 59.5756 49.882 55.907 45.2 55.4344V55.3314C50.0049 54.8462 53.8023 50.9944 54.1425 46.2C54.1509 46.2 54.1849 46.2 54.1933 46.2Z" fill="#FFD47E"/>
</svg>
