<svg width="80" height="80" viewBox="0 0 80 80" fill="none" xmlns="http://www.w3.org/2000/svg">
<path d="M28.5679 7.53816L29.3036 8.09779L30.3914 13.7095C30.4187 13.8507 30.496 13.978 30.6089 14.067L31.4122 14.6996C31.5088 14.7757 31.6269 14.8204 31.7496 14.8275L33.7813 14.9426L33.9045 15.2023C33.9983 15.4 34.1929 15.5307 34.4112 15.5437L36.8881 15.691L37.0782 16.4836C37.15 16.783 37.4372 16.9795 37.7423 16.9382L40.3905 16.5787C40.6936 16.5375 40.9172 16.2746 40.9093 15.9688L40.9066 15.8798L42.2026 15.4299L43.5843 15.5913L45.4567 16.3457L45.9253 17.2441C46.0432 17.4703 46.2914 17.5969 46.5438 17.56L47.161 17.469L48.1317 19.5462C48.2306 19.758 48.4442 19.8932 48.6779 19.8923C48.9116 19.8913 49.1235 19.7547 49.2208 19.5422L49.5997 18.7135L50.6079 18.4162L50.7478 18.8868C50.8084 19.0907 50.9731 19.2476 51.1795 19.2985L53.1744 19.7899L53.1992 20.3395C53.2075 20.5258 53.3019 20.698 53.4549 20.8047L54.5615 21.5766C54.707 21.6781 54.8902 21.7099 55.0615 21.6636L57.1769 21.0912C57.2651 21.0674 57.3471 21.0236 57.4159 20.9634L58.6175 19.909L60.0547 19.3487L60.4617 20.4011C60.5767 20.6978 60.9034 20.8527 61.2061 20.7545L62.3836 20.3716L63.8637 20.6079C63.9356 20.6194 64.0094 20.6174 64.0806 20.6026L65.4456 20.3181L67.4739 21.4768C67.5983 21.5478 67.7443 21.5715 67.8849 21.5444L67.9492 21.5317L66.8125 22.2272L63.444 23.5366L63.369 23.5721L61.0173 24.8842C60.9937 24.8974 60.9707 24.9121 60.9491 24.9283L60.8875 24.9819L57.8061 28.0338C57.7918 28.048 57.7781 28.0631 57.7653 28.0786L57.7291 28.1268L56.4967 29.9738L54.4838 32.0155L51.0872 34.8619C50.923 34.9995 50.8508 35.2088 50.8803 35.4095L49.5703 36.2369C49.3892 36.3512 49.2821 36.5537 49.2904 36.7677L49.5415 43.2189L49.2376 43.6065L47.1925 44.5731C47.1157 44.6095 47.0478 44.6617 46.993 44.7258L46.9428 44.7941L45.3656 47.2756C45.3197 47.3478 45.2898 47.4292 45.2779 47.5139L45.053 49.1212C45.0305 49.2819 45.0738 49.445 45.1735 49.573C45.2732 49.7009 45.4207 49.7831 45.5819 49.8006L46.1796 49.8649L46.9448 50.776L46.3209 52.1811C46.2841 52.264 46.2669 52.3542 46.27 52.4449L46.3343 54.3594L45.9186 58.4897C45.8987 58.6876 45.9782 58.8824 46.1308 59.0099L48.4543 60.9485C48.5514 61.0295 48.6716 61.0778 48.7977 61.0864L50.2189 61.1821L50.9493 62.1722C51.0056 62.2485 51.0799 62.3099 51.1648 62.3523L53.2809 63.4079L53.8251 64.6671C53.8646 64.7585 53.9263 64.8385 54.0045 64.9001L56.3615 66.7577C56.4292 66.8111 56.5081 66.8492 56.5918 66.8695L57.7968 67.1607L59.0995 69.2044L58.9267 70.7916C58.9143 70.9059 58.9351 71.0215 58.9863 71.1243L59.2139 71.5816L58.7099 71.607L18.0747 72.5L18.1671 52.7414C18.168 52.5414 18.069 52.3541 17.9034 52.242L16.0618 50.9956L15.0048 49.3461L16.9267 47.2763C16.9996 47.1977 17.0504 47.1011 17.0733 46.9964L17.3571 45.6964C17.3687 45.6435 17.3728 45.5892 17.3698 45.5351L17.1208 41.0393C17.115 40.9356 17.0824 40.8359 17.0271 40.7494L16.9642 40.6677L15.9848 39.598L15.5042 37.3387L15.5289 34.3939C15.5298 34.2886 15.5032 34.1843 15.4513 34.0927L15.2558 33.748L15.0543 26.6494C15.0534 26.6194 15.0509 26.5892 15.0456 26.5597L15.0228 26.4734L13.7175 22.6383C13.716 22.6339 13.7144 22.6292 13.7128 22.6249L12.9717 20.6046L13.0246 16.2453L13.2998 14.717C13.3135 14.6405 13.3126 14.5615 13.2964 14.4854L12.7 11.6892L27.5169 11.7173C27.6771 11.7176 27.8311 11.6536 27.944 11.5399C28.0568 11.4263 28.1195 11.2723 28.118 11.1122L28.0846 7.5L28.5679 7.53816Z" fill="#F75A45"/>
<path d="M33.1933 35.2C33.5349 40.0153 37.3646 43.8793 42.1991 44.3372C42.1992 44.3526 42.2 44.3679 42.2 44.3833C42.2 44.3984 42.1992 44.4136 42.1991 44.4287C37.4885 44.8747 33.7329 48.5556 33.2274 53.1983C33.2078 53.1984 33.188 53.2 33.1683 53.2C33.1478 53.2 33.1271 53.1984 33.1066 53.1983C32.6041 48.5756 28.882 44.9069 24.2 44.4344V44.3314C29.0049 43.8462 32.8023 39.9944 33.1425 35.2C33.1509 35.2 33.1849 35.2 33.1933 35.2Z" fill="#FFD47E"/>
</svg>
