<svg width="80" height="80" viewBox="0 0 80 80" fill="none" xmlns="http://www.w3.org/2000/svg">
<path d="M46.7902 13.5995C46.8597 13.6794 46.9475 13.7422 47.0455 13.7823L47.4058 13.9295L46.8023 15.1448C46.7381 15.2744 46.7174 15.4216 46.7426 15.564L47.2056 18.1759C47.2107 18.2041 47.2182 18.2323 47.2268 18.2597L48.436 22.1193C48.4697 22.2265 48.5292 22.3243 48.6097 22.4026L51.8485 25.5492C51.8721 25.572 51.8974 25.5934 51.924 25.6126L55.2625 28.0205L55.8048 31.9602C55.832 32.1572 55.945 32.3325 56.1129 32.439L57.1885 33.1218C57.4857 33.3102 57.8778 33.2391 58.0903 32.9587L58.789 32.035L60.3729 32.3998L61.1153 32.8099L60.5239 33.8243C60.4241 33.9957 60.4045 34.2029 60.4703 34.39L60.7996 35.3258L59.3781 38.486C59.3335 38.5854 59.3136 38.6945 59.32 38.8032L59.4438 40.8924C59.4561 41.0954 59.559 41.2827 59.7241 41.4015L62.9243 43.7044L64.0134 45.2316C64.1851 45.4719 64.4932 45.5731 64.774 45.4817L65.4651 45.2551L68.2703 47.4039L68.3836 49.052C68.3879 49.1138 68.4005 49.1756 68.4214 49.234L69.1714 51.333L68.7447 51.898C68.571 52.1277 68.5614 52.4424 68.7212 52.682L71.0944 56.2379C71.2193 56.4248 71.4293 56.5374 71.6541 56.5386L72.713 56.5431L72.4736 60.2683L71.4343 60.0318C71.2506 59.9901 71.0573 60.0267 70.9018 60.1331C70.7465 60.2395 70.6417 60.4061 70.614 60.5923L70.4509 61.6943L70.2825 61.7064L69.571 61.7555C69.379 61.7688 69.2012 61.8626 69.083 62.0145C68.965 62.1665 68.9171 62.3622 68.9516 62.5515L69.4788 65.4489L67.8534 68.2934L62.9537 68.6L63.6652 67.2125L64.9545 65.6302C65.1047 65.4458 65.1465 65.1959 65.0656 64.9723L64.2023 62.5916C64.1145 62.3498 63.8987 62.1821 63.6494 62.1512L63.5406 62.1467L19.7201 63.7804L18.9701 63.791L18.4829 30.2532C18.4792 29.9974 18.3319 29.7688 18.1083 29.6573L18.0078 29.6172L16.2208 29.0591L14.939 26.3097C14.909 26.2453 14.8694 26.1856 14.8212 26.1338L14.7698 26.0847L13.7924 25.2357L15.5516 21.9116C15.6462 21.7325 15.6556 21.5199 15.5772 21.333C15.4987 21.1462 15.3403 21.0041 15.146 20.9463L12.2622 20.0891L11.383 19.0588L9.03705 15.7695L7.5 12.6297L17.5342 12.7271C17.5436 12.7272 17.5536 12.7274 17.5629 12.7271L30.709 12.3056C30.7155 12.3054 30.7229 12.3053 30.7294 12.3049L44.195 11.4763C44.2059 11.4756 44.2173 11.4752 44.2282 11.474L44.8823 11.4L46.7902 13.5995Z" fill="#5456D1"/>
</svg>
