<svg width="72" height="80" viewBox="0 0 72 80" fill="none" xmlns="http://www.w3.org/2000/svg">
<path d="M67.0617 28.2382L65.6818 28.2741C65.487 28.2791 65.3143 28.3941 65.2331 28.5662L65.204 28.6437L65.1112 28.966L62.8025 29.9763C62.6758 30.0317 62.5779 30.136 62.5297 30.2639L62.512 30.3203L62.4323 30.6392L60.889 31.0919C60.6342 31.1666 60.4791 31.4242 60.5325 31.6842L60.6657 32.3323C60.6968 32.483 60.7944 32.6118 60.9311 32.6825C61.0678 32.7532 61.2292 32.7585 61.3702 32.6968L63.0827 31.9456L63.1852 32.0464C63.3314 32.1902 63.5494 32.2327 63.7387 32.154L65.7621 31.3123L66.5161 31.867C66.6764 31.985 66.8903 31.9989 67.0646 31.9029L67.8283 31.482L68.5441 32.9992L68.3573 33.7634L67.8419 33.9439C67.7562 33.9739 67.6804 34.0261 67.6221 34.0943L67.5703 34.1678L66.0417 36.776L63.8646 37.329C63.6586 37.3814 63.5065 37.5563 63.483 37.7675L63.2894 39.5216C63.2722 39.6777 63.3278 39.8333 63.4403 39.943L64.8447 41.3115C64.9318 41.3964 65.0467 41.4477 65.1681 41.4556L65.6351 41.4852L64.9227 43.5308L63.598 43.5211C63.5416 43.5207 63.4852 43.5294 63.4318 43.5473L61.0644 44.3423C61.0483 44.3477 61.0325 44.3542 61.0171 44.3611L60.9715 44.3845L59.4607 45.2592C59.4409 45.2707 59.4217 45.2834 59.4037 45.2974L59.3525 45.3429L57.0101 47.724C56.9924 47.742 56.976 47.7617 56.9612 47.7821L56.9207 47.847L55.485 50.6119C55.4725 50.636 55.4622 50.6614 55.4537 50.6871L55.4343 50.7662L55.0032 53.4497L53.7549 53.2128C53.6832 53.1992 53.6095 53.2013 53.5391 53.2185L53.4696 53.2407L50.8345 54.2999L40.7237 46.9814C40.6299 46.9136 40.5161 46.8799 40.4014 46.8851L40.3524 46.8897L32.281 48.0503L32.3231 47.597C32.3381 47.4354 32.2748 47.2759 32.1534 47.1682L30.5332 45.7302C30.3424 45.561 30.0585 45.5599 29.8669 45.7205L29.8299 45.7547L29.8236 45.7604C29.7839 45.5104 29.5679 45.329 29.3196 45.3293L29.2701 45.3316L19.7242 46.2695C19.7048 46.2714 19.6852 46.2745 19.6661 46.2786L19.6103 46.294L17.5009 47.0087C17.4769 47.0169 17.4534 47.0267 17.4309 47.0383L17.3665 47.0782L15.9115 48.1255L13.3954 49.1136L9.67093 49.7634L4.8046 50.3374L4.80005 48.994L5.7568 48.7274C5.91452 48.6834 6.04175 48.5661 6.0985 48.4125L6.67539 46.8504L8.18398 45.3412L9.90329 45.0696C10.0107 45.0525 10.1099 45.0017 10.1863 44.9244L11.8008 43.2888L13.7827 42.5308C13.8955 42.4875 13.9894 42.4055 14.0475 42.2996L15.3112 39.9948L15.6933 39.6799L15.826 39.9817C15.8909 40.1296 16.0218 40.2383 16.1791 40.2744C16.3365 40.3105 16.5022 40.27 16.625 40.1651L19.1251 38.0278L20.292 38.1998C20.5247 38.234 20.7509 38.1045 20.8393 37.8866L21.5665 36.0904L22.6639 35.5249C22.8389 35.4344 22.9461 35.2513 22.9396 35.0545L22.8781 33.223L27.7552 32.699C27.7594 32.6986 27.7636 32.6984 27.7677 32.6979L32.8317 32.0259C32.8366 32.0252 32.8416 32.0244 32.8465 32.0236L38.9475 31.0321C38.9534 31.0312 38.9593 31.0299 38.9651 31.0287L65.7376 25.7L67.0617 28.2382Z" fill="#FF7866"/>
</svg>
