<svg width="80" height="80" viewBox="0 0 80 80" fill="none" xmlns="http://www.w3.org/2000/svg">
<path d="M32.9216 9.4164C32.9258 9.41748 32.9304 9.41847 32.9347 9.41943L43.0426 11.6965L43.0487 11.6981L60.9477 15.4795L51.6554 63.8545L50.8901 64.8817L50.6911 64.8561L50.2871 63.9361C50.2201 63.7836 50.0744 63.6799 49.9082 63.6671L47.2674 63.4656C47.0233 63.447 46.8087 63.6261 46.7838 63.8696L46.2694 68.9055C46.2645 68.9543 46.2676 69.0038 46.2785 69.0516L46.6518 70.6879L46.3737 72.0929L46.1021 72.5L40.1177 63.2742C40.1159 63.2715 40.1139 63.2683 40.1121 63.2656L36.4027 57.8151L31.5216 50.4009L31.5195 50.3979L25.2988 41.1066L19.2 31.7785L25.4565 7.5L32.9216 9.4164Z" fill="#F75A45"/>
<path d="M39.1933 21.2C39.5349 26.0153 43.3646 29.8794 48.1991 30.3372C48.1992 30.3526 48.2 30.368 48.2 30.3834C48.2 30.3985 48.1992 30.4136 48.1991 30.4287C43.4885 30.8748 39.7329 34.5556 39.2274 39.1984C39.2078 39.1984 39.188 39.2 39.1683 39.2C39.1478 39.2 39.1271 39.1984 39.1066 39.1984C38.6041 34.5756 34.882 30.907 30.2 30.4344V30.3314C35.0049 29.8462 38.8023 25.9944 39.1425 21.2C39.1509 21.2 39.1849 21.2 39.1933 21.2Z" fill="#FFD47E"/>
</svg>
