<svg width="80" height="80" viewBox="0 0 80 80" fill="none" xmlns="http://www.w3.org/2000/svg">
<path d="M32.8575 12.621L37.1307 13.1778C37.1359 13.1784 37.1415 13.1791 37.1467 13.1796L57.7263 15.264C57.7308 15.2644 57.7358 15.2648 57.7404 15.2652L68.0801 16.0491L67.7732 20.1916C67.5948 20.2709 67.4647 20.4435 67.4492 20.6513L64.0157 66.7331L33.7474 63.9216C33.5125 63.8999 33.2896 64.03 33.1944 64.2452L32.7803 65.1823C32.7082 65.3455 32.7202 65.5335 32.8128 65.686L33.0119 66.0145L19.483 64.3911C19.1841 64.3554 18.9116 64.5666 18.873 64.8643L18.3371 69L12.0801 68.1648L20.2884 11L32.8575 12.621Z" fill="#5456D1"/>
</svg>
