<svg width="80" height="80" viewBox="0 0 80 80" fill="none" xmlns="http://www.w3.org/2000/svg">
<path d="M55.2809 11.4456L55.2311 14.0561C55.228 14.2208 55.279 14.3825 55.3762 14.515L56.8673 16.5473L57.1393 19.0094L56.7993 21.9853C56.7843 22.1181 56.8049 22.2529 56.859 22.375L58.3742 25.7897L58.3186 26.846C58.3073 27.0599 58.3874 27.2689 58.5392 27.4191L60.2949 29.1553L62.2089 38.5362C62.2107 38.545 62.2126 38.5543 62.2147 38.5629L62.4735 39.635L62.5614 49.1611C62.5619 49.2179 62.5688 49.2752 62.5821 49.3304L62.6999 49.8193L64.4771 60.3716C64.5032 60.5256 64.5764 60.668 64.6869 60.7779L65.143 61.2309L63.5408 62.8236C63.2737 63.0893 63.2454 63.5142 63.4753 63.8131L64.5691 65.2339C64.7113 65.4186 64.9315 65.5264 65.1637 65.5242L70.079 65.475C70.3493 65.4723 70.5973 65.322 70.7259 65.0829L71.0916 64.4012L74.3475 63.5911C74.3956 63.5791 74.4429 63.5625 74.4877 63.5411L76.5236 62.5675C76.628 62.5175 76.7196 62.4431 76.7906 62.3514L78.3622 60.3165L78.5894 60.7637C78.7004 60.9828 78.9119 61.1335 79.1542 61.1658L79.5 61.2117L77.3413 63.1239L70.2947 68.0672L67.3473 69.3695L65.2425 69.7299C65.1673 69.7429 65.0944 69.7675 65.0269 69.8025L64.9614 69.8409L63.9571 70.5L63.2223 69.2761L63.3575 65.2581C63.3686 64.9291 63.1647 64.631 62.8549 64.5247L59.167 63.2599L53.9788 61.4153L53.1446 60.6619C52.9962 60.528 52.8014 60.4601 52.6047 60.4717L52.5209 60.4817L51.4154 60.6753L49.6291 59.1844L49.5337 57.3272C49.5234 57.1285 49.435 56.9435 49.2899 56.8116L49.2244 56.7582L47.4497 55.4801C47.2355 55.3259 46.9556 55.2973 46.7149 55.405L46.5374 55.4834L45.4046 54.1769C45.23 53.9755 44.9611 53.8833 44.7005 53.9349L0.94451 62.595L0.5 60.0103L5.55713 55.264C5.64543 55.1811 5.71235 55.0776 5.75202 54.9628L6.42127 53.0205L7.84353 51.4988C8.05866 51.2684 8.10718 50.9265 7.96378 50.6453L6.83592 48.436C6.78022 48.327 6.6994 48.2335 6.6004 48.1641L6.49508 48.1032L5.96681 47.8495L4.93349 45.103L9.88446 42.7378L14.9864 41.8392L16.9228 41.8008L19.1611 42.8437C19.3955 42.9529 19.67 42.9317 19.8851 42.7878L21.042 42.0128L25.0981 41.2669C25.188 41.2503 25.2748 41.2173 25.3527 41.1693L27.936 39.5766C28.0159 39.5274 28.0863 39.4633 28.1425 39.388L30.2614 36.5464L31.7276 36.1726C32.1138 36.0739 32.3536 35.6863 32.2717 35.2941L31.5145 31.6799L32.042 29.3731C32.1255 29.0064 31.9252 28.6344 31.5742 28.5046L29.423 27.7086L29.6005 26.6825L32.7095 23.7274C32.7869 23.6538 32.8486 23.5646 32.8887 23.4654L33.7951 21.2128L37.4615 15.6872L41.1229 12.5819L47.4372 11.4865C47.4616 11.4822 47.4864 11.4773 47.5102 11.4706L54.556 9.5L55.2809 11.4456Z" fill="#F75A45"/>
<path d="M46.1933 29.2C46.5349 34.0153 50.3646 37.8794 55.1991 38.3372C55.1992 38.3526 55.2 38.368 55.2 38.3834C55.2 38.3985 55.1992 38.4136 55.1991 38.4287C50.4885 38.8748 46.7329 42.5556 46.2274 47.1984C46.2078 47.1984 46.188 47.2 46.1683 47.2C46.1478 47.2 46.1271 47.1984 46.1066 47.1984C45.6041 42.5756 41.882 38.907 37.2 38.4344V38.3314C42.0049 37.8462 45.8023 33.9944 46.1425 29.2C46.1509 29.2 46.1849 29.2 46.1933 29.2Z" fill="#FFD47E"/>
</svg>
