<svg width="80" height="80" viewBox="0 0 80 80" fill="none" xmlns="http://www.w3.org/2000/svg">
<path d="M43.2905 11.1192L43.2957 11.121L50.0813 13.4325L49.5828 20.7289L46.2568 23.632L46.2023 24.2638L45.6495 30.6036L52.7755 31.2688L53.3074 33.3926L54.7308 49.3806L50.5482 62.0865L46.7886 66.4253L46.5569 66.6938L44.9544 72.5L42.9482 70.148L35.7291 69.0563L27.0918 64.6561L25.7 61.1895L26.574 59.738L26.7109 59.5116L26.7654 59.2518L27.4639 55.9433L33.6422 51.9871L33.1736 49.4245L38.4988 43.5516L38.7077 43.3199L40.3189 38.8249L31.4026 34.1596L30.4969 30.0946L27.7851 29.6435L26.9479 27.7356L29.858 21.266L28.9611 20.5007L27.0076 18.8298L30.3652 12.6725L30.4653 12.4865L30.5144 12.2811L31.2534 9.14637L32.7804 7.5L43.2905 11.1192Z" fill="#FF7866"/>
</svg>
