<svg width="80" height="80" viewBox="0 0 80 80" fill="none" xmlns="http://www.w3.org/2000/svg">
<path d="M62.9593 31.549L61.965 32.2639C61.6287 32.5058 61.5489 32.9711 61.7856 33.3103L62.6939 34.613L62.9958 36.4487L62.0892 39.9695C62.083 39.9938 62.0777 40.0185 62.0739 40.0431L62.0663 40.1176L61.7873 45.3193L58.5265 50.3239L57.9277 50.7646L56.6562 50.2604C56.4665 50.1852 56.2538 50.1896 56.0668 50.2714C55.88 50.3534 55.7335 50.5061 55.6612 50.6961L54.9961 52.4421L54.3165 52.5005C54.0257 52.5254 53.7746 52.7133 53.6701 52.9844L52.5458 55.9054C52.4775 56.0828 52.4788 56.2795 52.5492 56.4561L53.0399 57.6869L52.8128 58.0498L51.6307 56.8182C51.4499 56.6297 51.184 56.5464 50.9273 56.5982C50.703 56.6436 50.5129 56.7868 50.4068 56.9848L50.3668 57.0736L48.9516 60.7949C48.8898 60.9576 48.8855 61.1366 48.9405 61.3016L49.4934 62.9597L48.8027 63.6212C48.682 63.7368 48.6036 63.8884 48.5782 64.0518L48.5706 64.1229L48.4889 65.4891L46.3856 66L44.8624 64.5577C44.7645 64.465 44.6435 64.3991 44.512 64.3682L43.7142 64.1804L43.1223 62.255C43.0583 62.0471 42.9072 61.8763 42.7081 61.7864C42.509 61.6966 42.2807 61.6957 42.0813 61.7847L40.5997 62.4462C40.5192 62.4821 40.446 62.5319 40.3828 62.5926L40.3233 62.6568L39.2423 63.9638L35.6558 63.4867C35.4692 63.4619 35.2796 63.5062 35.1242 63.6119L33.7379 64.5543L31.5912 63.1771C31.4735 63.1016 31.3367 63.0596 31.1966 63.0561L28.1348 62.98L27.7853 62.1924C27.7712 62.1609 27.7549 62.1303 27.7368 62.1011L27.6755 62.0165L25.3775 59.2519C25.2122 59.0531 24.9564 58.9512 24.6988 58.9821L21.2237 59.3983L16.9958 23.8248L30.489 21.638L34.5289 22.9365L35.6932 23.8265C36.022 24.0774 36.4927 24.0212 36.7521 23.6996L37.253 23.0761L39.2049 24.5582C39.279 24.6144 39.363 24.6564 39.4524 24.6825L41.0352 25.1444C41.2268 25.2003 41.4331 25.1789 41.6092 25.0852L46.3542 22.5584L48.8172 22.6151C49.0376 22.6201 49.2496 22.5302 49.3981 22.368L52.277 19.2195L56.2046 16.0759L60.0625 14L62.9593 31.549Z" fill="#F75A45"/>
<path d="M41.1933 32.2C41.5349 37.0152 45.3646 40.8793 50.1991 41.3371C50.1992 41.3525 50.2 41.3679 50.2 41.3833C50.2 41.3984 50.1992 41.4135 50.1991 41.4286C45.4885 41.8747 41.7329 45.5555 41.2274 50.1983C41.2078 50.1984 41.188 50.2 41.1683 50.2C41.1478 50.2 41.1271 50.1984 41.1066 50.1983C40.6041 45.5755 36.882 41.9069 32.2 41.4344V41.3314C37.0049 40.8462 40.8023 36.9943 41.1425 32.2C41.1509 32.2 41.1849 32.1999 41.1933 32.2Z" fill="#FFD47E"/>
</svg>
