<svg width="80" height="80" viewBox="0 0 80 80" fill="none" xmlns="http://www.w3.org/2000/svg">
<path d="M25.4587 13.8853C25.556 14.0531 25.7337 14.1589 25.9276 14.164L26.9564 14.1896L27.472 14.2644L28.4335 15.4896L28.7564 16.6842L28.1585 19.6452C28.1129 19.8711 28.2107 20.102 28.4048 20.2263L31.8166 22.4098C31.9412 22.4895 32.0929 22.5162 32.2374 22.4846L35.5613 21.7564L37.3969 22.1099L39.1546 23.0701L39.192 23.5302C39.2041 23.6779 39.2747 23.8147 39.3878 23.9106C39.5009 24.0064 39.6478 24.0538 39.7955 24.0415L43.9013 23.6973L44.339 24.1743C44.4266 24.2698 44.5449 24.3322 44.6732 24.3501L46.992 24.6725C47.0676 24.683 47.1453 24.6779 47.2189 24.6575L49.1686 24.1138L52.273 23.9767L55.2633 24.5035C55.3558 24.5198 55.4513 24.5125 55.5402 24.4823L56.5453 24.1394L70.5921 27.5001L71.119 29.1467C71.1556 29.2611 71.2278 29.3611 71.3254 29.431L72.7251 30.433L72.8604 31.4649L70.8297 33.9627C70.8105 33.9863 70.793 34.0118 70.7779 34.0381L70.7393 34.121L70.1345 35.749L68.9654 36.6662C68.8224 36.7784 68.7421 36.9535 68.7515 37.135L68.7914 37.8963L67.9404 38.9594L67.3063 39.0741C67.181 39.0968 67.0675 39.1617 66.9845 39.2568L66.9509 39.2998L64.5834 42.62C64.5018 42.7346 64.4663 42.8763 64.4843 43.0159L64.6813 44.536C64.7087 44.7475 64.8541 44.9252 65.056 44.9936L66.2999 45.4145L66.4577 45.8933L64.7961 48.7957C64.7822 48.8199 64.7699 48.8453 64.7599 48.8712L64.7356 48.951L60.6099 67.3L48.658 64.6071L38.8821 62.0981L30.9792 60.0107L21.0425 57.0802L21.0356 57.0783L14.732 55.3082L7.64967 53.2357L7.13965 52.1277L7.58795 48.9354L8.27754 46.6964C8.30683 46.6013 8.31045 46.4996 8.28751 46.4027L7.86353 44.6164L8.96651 43.3756C8.99618 43.3423 9.02229 43.3054 9.0432 43.2659L10.3675 40.7582L12.2424 38.2455C12.2587 38.2237 12.2737 38.2002 12.2867 38.1763L13.5729 35.7889C13.5826 35.7709 13.5915 35.7517 13.5991 35.7328L16.9698 27.3866C16.9759 27.3714 16.9812 27.3554 16.986 27.3398L17.3239 26.2275L19.1863 22.7515C19.1995 22.7269 19.2112 22.7005 19.2206 22.6742L21.0512 17.5197C21.0648 17.4814 21.0743 17.4415 21.0793 17.4012L21.4365 14.4913L22.0351 13.2169L24.7716 12.7L25.4587 13.8853Z" fill="#FF7866"/>
</svg>
