<svg width="80" height="80" viewBox="0 0 80 80" fill="none" xmlns="http://www.w3.org/2000/svg">
<path d="M63.091 20.6398C63.3131 20.8941 63.6755 20.9738 63.984 20.8364L64.2827 20.7025L65.4607 21.5448L65.5586 23.4243C65.5698 23.6388 65.6698 23.8391 65.8351 23.9763L68.2177 25.952C68.3909 26.0956 68.6185 26.1561 68.8402 26.1177L69.9667 25.9211L70.0731 26.0164L69.3665 26.7505C69.2929 26.8269 69.2358 26.9179 69.1991 27.0166L69.1699 27.118L68.8067 28.7484L66.9281 32.2301C66.7564 32.5484 66.8296 32.9432 67.1041 33.1788L68.1155 34.0477L67.0406 36.4063C66.9468 36.6124 66.9489 36.8498 67.0457 37.0545L67.785 38.6172C67.8932 38.8457 68.1072 39.0066 68.3568 39.0473L69.066 39.1624L69.3536 40.4494C69.4025 40.6681 69.545 40.8547 69.7426 40.9603L73.2105 42.8106L72.9967 43.4777L70.2431 46.4356C70.0707 46.621 70.0001 46.8804 70.0551 47.1276L70.1882 47.7261L68.0451 49.111L66.2893 49.1462C66.0582 49.151 65.841 49.2595 65.6986 49.4415L64.3231 51.2017L24.6335 58.9797L13.9319 60.7999L8.80005 29.5426L10.1025 28.6797C10.1188 28.6689 10.1352 28.6574 10.1506 28.6454L14.8454 24.9766L15.2911 27.5558C15.3263 27.7598 15.4425 27.9416 15.613 28.059C15.7835 28.1762 15.9947 28.2199 16.1977 28.18L61.8357 19.2L63.091 20.6398Z" fill="#5456D1"/>
</svg>
