<svg width="80" height="80" viewBox="0 0 80 80" fill="none" xmlns="http://www.w3.org/2000/svg">
<path d="M31.5778 3.58736L31.5836 3.58777L41.4148 4.09475L40.854 17.41C40.8492 17.5259 40.8988 17.6377 40.9884 17.7118C41.078 17.7858 41.1974 17.8139 41.3108 17.7876L41.4913 17.7454L42.4988 18.9815C42.5888 19.0919 42.7342 19.1413 42.8732 19.1088L43.6323 18.9309L45.1244 19.0453L45.4152 20.1347C45.4597 20.3011 45.6132 20.4152 45.7858 20.4104L46.9002 20.3785L48.0055 20.9936C48.066 21.0273 48.1347 21.0436 48.2039 21.0405L49.0513 21.0024L49.5267 21.4903C49.5971 21.5625 49.694 21.6033 49.795 21.603C49.8961 21.6027 49.9929 21.5613 50.0629 21.4886L50.535 20.9974L51.367 21.2208L51.6811 21.8559C51.7345 21.964 51.8374 22.0396 51.9568 22.0586L52.5563 22.1535L52.8649 22.9262C52.9097 23.0384 53.0067 23.1219 53.1245 23.1501C53.2422 23.1781 53.3663 23.1475 53.4573 23.068L54.3167 22.3152L55.446 22.777L55.9939 23.3242C56.1048 23.4349 56.2739 23.4647 56.4161 23.3984L56.6852 23.2723L56.9269 23.817C56.9775 23.931 57.082 24.0121 57.2052 24.033C57.3286 24.0538 57.4546 24.0114 57.5401 23.9203L58.6179 22.7708L58.7755 23.0792C58.8387 23.2027 58.9654 23.2812 59.1046 23.2823L60.4531 23.2922L61.4964 23.7416L61.84 24.2759C61.9018 24.372 62.0048 24.4342 62.1187 24.4451C62.2326 24.4558 62.3452 24.414 62.424 24.3315L63.3766 23.3333L64.3342 23.0439L64.7988 23.3523C64.91 23.4262 65.0524 23.4354 65.172 23.376L66.2726 22.8284L66.3047 22.8856C66.3692 23.0018 66.4913 23.0748 66.6246 23.0771L68.2514 23.1045C68.3775 23.1065 68.4963 23.0449 68.5667 22.9407L68.7918 22.6074L69.848 23.0887L70.4116 23.822C70.457 23.8811 70.5192 23.9254 70.5901 23.9489L72.7535 24.6635L73.3126 25.2509C73.4134 25.3568 73.567 25.3941 73.7053 25.3463L74.598 25.037L75.0514 25.1916L75.2719 35.8899C75.2738 35.9846 75.3118 36.0752 75.3783 36.1428L76.7681 37.5535L76.7997 38.9169C76.8013 38.9826 76.8205 39.047 76.8551 39.103L78.5514 41.8484L78.5859 43.1571L78.0406 44.8799L77.4732 45.5361C77.3944 45.6272 77.3645 45.751 77.3933 45.8678L77.5934 46.6782L77.2552 47.2967C77.2056 47.3876 77.1962 47.4954 77.2294 47.5935L77.6388 48.7981L76.4824 51.1879C76.4261 51.3042 76.4345 51.4416 76.5044 51.5502L76.6021 51.7015L76.1708 51.726C76.1541 51.7269 76.1373 51.729 76.1209 51.7322L76.0718 51.7454L73.2203 52.7092L72.239 52.3063L72.0493 51.3657C72.0205 51.2232 71.9106 51.1103 71.7685 51.0772C71.6442 51.0483 71.515 51.0851 71.4249 51.1717L71.3887 51.2119L70.9095 51.8304L70.5056 51.7202C70.4062 51.693 70.2998 51.7079 70.2119 51.7616C70.1241 51.8153 70.0625 51.9031 70.0418 52.0037L69.8384 52.9973C69.8071 53.1503 69.875 53.3066 70.0085 53.3882L70.4811 53.6772L70.4927 54.6629L69.5289 55.9028L67.6612 57.5854L64.236 59.336L63.9898 59.1486C63.8956 59.0769 63.7733 59.0546 63.6611 59.0864L63.6137 59.1038L63.0309 59.3579C63.0085 59.2932 62.9683 59.2347 62.9136 59.1905C62.8262 59.1198 62.711 59.0925 62.6008 59.1159L61.3167 59.389L60.8142 58.7022C60.7254 58.5808 60.5733 58.5263 60.4303 58.5587L60.3699 58.5778L59.9353 58.7581C59.8259 58.8034 59.7443 58.8977 59.716 59.0122C59.6878 59.1269 59.7163 59.2482 59.7922 59.3389L61.0076 60.7897L60.4644 61.0783L59.5334 60.7582C59.4305 60.7229 59.317 60.7344 59.2231 60.7893C59.141 60.8374 59.0808 60.9148 59.0542 61.0049L59.0451 61.0443L58.84 62.188L57.4061 63.3665C57.3793 63.3885 57.3559 63.4144 57.3362 63.4428L57.3179 63.4718L55.9756 65.8674C55.9659 65.8847 55.9574 65.9031 55.9506 65.9217L55.1557 68.1005L54.8333 68.0068C54.7365 67.9785 54.6323 67.9908 54.5446 68.0404C54.4679 68.0838 54.4094 68.1527 54.3791 68.2344L54.3678 68.2704L54.1324 69.1783C54.0986 69.3089 54.1387 69.4477 54.2368 69.5406C54.335 69.6334 54.4758 69.6659 54.6049 69.6255L54.6299 69.6173L54.3895 70.5483L54.1902 70.5777C54.0326 70.6012 53.9098 70.7213 53.8795 70.8725L53.8724 70.9392L53.8558 71.9594C53.854 72.0661 53.8984 72.1686 53.9777 72.2404L54.5255 72.7366L54.7031 74.6717C54.7104 74.7506 54.7431 74.8255 54.7959 74.8847L55.357 75.5144L55.3404 76.7166C55.3395 76.7815 55.3557 76.8459 55.3874 76.9027L55.8258 77.6874L54.4847 78.15L53.9901 77.4569C53.9388 77.3851 53.8633 77.3335 53.7776 77.3118L52.2193 76.9193C52.2024 76.915 52.1851 76.912 52.1677 76.9102L52.1157 76.9081L50.2239 76.9703L48.5675 75.8324C48.5305 75.807 48.4893 75.7884 48.446 75.7776L48.4023 75.7694L47.4019 75.6442L46.4002 74.777C46.3671 74.7483 46.3292 74.7257 46.2883 74.7102L46.2467 74.6974L45.0246 74.3914L44.3158 73.6482L43.9635 71.6327C43.9523 71.569 43.9246 71.5092 43.8832 71.4594L42.9115 70.2913L42.9456 69.3391C42.9472 69.2932 42.9403 69.2473 42.9252 69.204L42.5629 68.1651L42.7912 67.2971C42.8197 67.1883 42.7972 67.072 42.7301 66.9816L41.8923 65.8549C41.8545 65.8041 41.8043 65.764 41.7471 65.738L41.6877 65.7169L41.1307 65.5702L40.2367 64.6992L40.0861 63.5754C40.0766 63.5045 40.0467 63.4375 40 63.3831L38.9589 62.1689C38.9436 62.1511 38.9264 62.1346 38.9081 62.12L37.7396 61.1889L37.2155 59.1946C37.2102 59.1747 37.2032 59.1549 37.1947 59.1362L37.1647 59.0823L36.7754 58.5019L36.0287 56.86L35.8877 55.5189C35.8822 55.4669 35.8656 55.4167 35.8395 55.3718L35.8103 55.3287L34.9988 54.2973C34.989 54.2849 34.9784 54.2731 34.9672 54.2621L34.9314 54.231L33.7825 53.358L33.6344 52.8746C33.6043 52.7769 33.535 52.6957 33.443 52.6504L32.3007 52.0878L31.5878 50.6158C31.5358 50.5088 31.4352 50.4329 31.3178 50.4119L28.5607 49.9182C28.5407 49.9146 28.5203 49.9127 28.5 49.9124L27.0778 49.8929L25.6901 49.2769C25.5957 49.235 25.4882 49.2339 25.3931 49.274C25.3098 49.3091 25.2426 49.3733 25.2034 49.4535L25.1884 49.4887L25.007 49.9824L23.7362 50.0815C23.6492 50.0883 23.5678 50.1255 23.5058 50.1856L23.4804 50.2125L22.3073 51.6012C22.2929 51.6183 22.2798 51.6366 22.2687 51.6559L22.2408 51.7168L21.5149 53.7667L21.3423 53.7692C21.2407 53.7705 21.1445 53.813 21.0756 53.8857L21.0478 53.9188L20.2042 55.0497L19.4471 55.0178L18.1206 53.9209C18.1044 53.9076 18.0871 53.8953 18.069 53.8849L14.6255 51.9026L13.8934 50.9719C13.8852 50.9615 13.8765 50.9512 13.8672 50.9417L13.8377 50.9147L12.7029 49.9816L11.8801 48.0598L11.8343 46.3188C11.833 46.2686 11.8212 46.2189 11.8002 46.1733L11.1055 44.6673L10.8123 43.3839C10.8075 43.363 10.8006 43.3426 10.7923 43.3229L10.7628 43.2662L10.2066 42.4006C10.1774 42.3552 10.1383 42.3164 10.0926 42.2874L7.96284 40.9361L6.91084 39.2705C6.88929 39.2364 6.86232 39.2056 6.83097 39.1801L6.08679 38.5753L5.00734 37.0937C4.99384 37.0752 4.9786 37.058 4.962 37.0423L4.90792 36.9996L3.62131 36.1731L2.82638 34.3329C2.80406 34.2814 2.77044 34.2355 2.72821 34.199L2.68287 34.1659L1.97155 33.7186L1.58594 33.0835L1.68078 32.8688L22.3494 34.7889C22.449 34.7982 22.5483 34.7671 22.6247 34.7027C22.7011 34.6383 22.7484 34.5459 22.7558 34.4465L25.0877 3.15002L31.5778 3.58736Z" fill="#FF7866"/>
</svg>
