<svg width="80" height="80" viewBox="0 0 80 80" fill="none" xmlns="http://www.w3.org/2000/svg">
<path d="M42.0703 10.3614C42.0748 10.3622 42.0798 10.3634 42.0843 10.3642L50.8729 11.7622L49.0758 23.0194C49.0493 23.1852 49.0905 23.3552 49.1896 23.4908C49.2888 23.6262 49.4381 23.7167 49.6041 23.7416L66.5679 26.272L62.1961 57.9143C62.1892 57.9644 62.1881 58.0157 62.1933 58.066L62.3261 59.339L60.5129 72.5L47.4699 70.4753L15.3 65.0315L26.3514 7.5L42.0703 10.3614Z" fill="#F75A45"/>
<path d="M42.1933 33.2C42.5349 38.0153 46.3646 41.8794 51.1991 42.3372C51.1992 42.3526 51.2 42.368 51.2 42.3834C51.2 42.3985 51.1992 42.4136 51.1991 42.4287C46.4885 42.8748 42.7329 46.5556 42.2274 51.1984C42.2078 51.1984 42.188 51.2 42.1683 51.2C42.1478 51.2 42.1271 51.1984 42.1066 51.1984C41.6041 46.5756 37.882 42.907 33.2 42.4344V42.3314C38.0049 41.8462 41.8023 37.9944 42.1425 33.2C42.1509 33.2 42.1849 33.2 42.1933 33.2Z" fill="#FFD47E"/>
</svg>
