<svg width="80" height="80" viewBox="0 0 80 80" fill="none" xmlns="http://www.w3.org/2000/svg">
<path d="M54.9649 8.18589L53.6189 12.9114C53.4895 13.3662 53.5911 13.8564 53.891 14.222L56.4478 17.3359L54.8216 21.5527L49.2186 25.3621C48.6708 25.7347 48.4452 26.4343 48.6744 27.0559L50.79 32.7893L49.6678 34.9532C49.5541 35.1722 49.4974 35.4183 49.5052 35.6649L49.6936 41.701L47.7534 47.4345C47.6921 47.6159 47.6674 47.8086 47.681 47.9996L48.5182 59.7531C48.5304 59.923 48.572 60.0906 48.6422 60.2458L49.898 63.0183L48.8177 64.3676C48.5358 64.7196 48.4341 65.1843 48.544 65.6218L49.5213 69.5133C49.5615 69.6728 49.631 69.8222 49.7209 69.9577L38.1671 72.5L37.9594 71.6434L34.1677 53.1615C34.1245 52.9512 34.0349 52.7536 33.9069 52.5835L33.7652 52.4225L30.5064 49.2184L30.5998 47.4828C30.612 47.2547 30.5688 47.0265 30.4758 46.8178L27.5519 40.2713L28.1863 34.7616C28.1986 34.6543 28.1982 34.5454 28.1863 34.438L27.5986 29.1393C27.5705 28.8872 27.4755 28.6463 27.3249 28.4421L24.4896 24.6005L24.5862 19.7751C24.5897 19.5929 24.5583 19.4113 24.4944 19.2406L23.1001 15.5262L41.1956 11.2917C41.2153 11.2871 41.2358 11.2826 41.2552 11.2772L54.783 7.5L54.9649 8.18589Z" fill="#5456D1"/>
</svg>
