<svg width="80" height="80" viewBox="0 0 80 80" fill="none" xmlns="http://www.w3.org/2000/svg">
<path d="M49.9945 24.1276C50.1565 24.2179 50.3521 24.2252 50.5206 24.1477C50.6891 24.0701 50.8108 23.9169 50.8476 23.7351L51.2134 21.9265H51.7661L52.4531 22.3793L52.7203 23.7331C52.7691 23.98 52.9713 24.1675 53.2211 24.1976L54.9557 24.4052L56.0961 25.0636L56.7986 26.1807L56.6216 27.5273L55.7737 28.0709C55.6337 28.1606 55.5381 28.3062 55.5123 28.4705L55.2457 30.1792C55.2271 30.298 55.2454 30.4198 55.2989 30.5275L55.8062 31.5492C55.9371 31.813 56.2449 31.9369 56.5223 31.8379L58.2608 31.2164L58.7084 32.3873C58.7924 32.6072 59.0005 32.7547 59.2358 32.761L62.0751 32.8349L63.0734 33.8482C63.1334 33.909 63.2061 33.9561 63.2862 33.9857L65.4969 34.8011L65.039 37.6411C65.0127 37.8037 65.0563 37.9701 65.1596 38.0984L66.5608 39.8382L65.8576 40.8664C65.8087 40.9378 65.7763 41.019 65.7629 41.1038L65.7558 41.1894L65.7435 42.614C65.7414 42.8463 65.8778 43.0575 66.0905 43.1511L66.8586 43.4884L66.5757 43.9671L64.9417 42.9506C64.787 42.8545 64.5959 42.836 64.426 42.9013C64.2772 42.9586 64.1598 43.0746 64.099 43.2198L64.0763 43.2834L63.896 43.9133C63.8206 44.1762 63.9385 44.4559 64.1795 44.5853L65.9277 45.5253C66.0366 45.5837 66.1615 45.6054 66.2838 45.5882L70.0858 45.0511L71.3559 47.8203L41.171 53.8279L34.2365 54.9566L28.4736 55.7201L22.396 56.374L22.381 56.3753L8.80005 58.2001L10.0643 57.602C10.2464 57.5156 10.3711 57.3404 10.3932 57.1401L10.4931 56.2371L11.9209 55.6585C12.1672 55.5583 12.3142 55.3031 12.2777 55.0396L12.1946 54.4415L13.047 53.7338C13.2018 53.6052 13.2793 53.4057 13.2514 53.2064L13.1878 52.7549L15.9629 50.8244C16.0047 50.7953 16.0429 50.7603 16.0758 50.7213L18.0121 48.4158L19.3692 49.9416C19.4266 50.0062 19.4978 50.0578 19.5774 50.0914L21.2153 50.7823C21.3228 50.8275 21.4416 50.8397 21.5559 50.8167L22.7476 50.576C22.8849 50.5482 23.0079 50.4717 23.0933 50.3606L24.0333 49.1372L24.9544 49.7787C25.1265 49.8984 25.35 49.9164 25.5389 49.8254L27.5355 48.8634C27.5702 48.8467 27.6035 48.8263 27.6341 48.8031L30.7018 46.4802L30.7582 46.5612C30.8538 46.6992 31.004 46.7896 31.1708 46.8084C31.3376 46.827 31.505 46.7726 31.6288 46.6592L32.9593 45.4396C33.1039 45.3069 33.1723 45.1099 33.1402 44.9162L32.8464 43.1504L33.6566 41.4281L34.8379 39.5541C34.8828 39.4826 34.9115 39.4017 34.9222 39.318L35.1667 37.3946L36.5199 35.1378C36.568 35.0575 36.5962 34.9666 36.6017 34.8731L36.6912 33.3299L37.565 33.9766C37.6339 34.0276 37.7137 34.0624 37.7978 34.0791L39.0537 34.3289C39.2836 34.3744 39.5185 34.2769 39.6492 34.0824L40.368 33.0127C40.4051 32.9574 40.4327 32.8956 40.449 32.831L41.3228 29.3722L42.0046 29.7569C42.281 29.9124 42.6313 29.8173 42.7915 29.5435L45.769 24.4551C45.8218 24.3647 45.8497 24.2609 45.8487 24.1561L45.8273 21.8L49.9945 24.1276Z" fill="#F75A45"/>
<path d="M72.7526 32.8855L72.0851 33.6821C72.0134 33.7676 71.9674 33.8719 71.9534 33.9825L71.6154 36.6538L70.7572 40.8437L70.2019 41.3419L69.9392 40.723L69.8354 37.5126L71.1886 33.1314L73.0354 32.1285L72.7526 32.8855Z" fill="#F75A45"/>
<path d="M50.1933 31.2C50.5349 36.0152 54.3646 39.8793 59.1991 40.3371C59.1992 40.3525 59.2 40.3679 59.2 40.3833C59.2 40.3984 59.1992 40.4135 59.1991 40.4286C54.4885 40.8747 50.7329 44.5555 50.2274 49.1983C50.2078 49.1984 50.188 49.2 50.1683 49.2C50.1478 49.2 50.1271 49.1984 50.1066 49.1983C49.6041 44.5755 45.882 40.9069 41.2 40.4344V40.3314C46.0049 39.8462 49.8023 35.9943 50.1425 31.2C50.1509 31.2 50.1849 31.1999 50.1933 31.2Z" fill="#FFD47E"/>
</svg>
