<svg width="80" height="80" viewBox="0 0 80 80" fill="none" xmlns="http://www.w3.org/2000/svg">
<path d="M73.0852 28.1202L66.0087 59.5915C65.9894 59.6778 65.9878 59.7673 66.0036 59.8544L66.3965 62.0212L66.0878 63.4L49.5538 59.4445C49.4627 59.4227 49.3682 59.4206 49.2768 59.4378L49.1867 59.4615L47.9756 59.8743L44.5296 59.2672C44.5058 59.2631 44.4813 59.26 44.4573 59.2584L44.3856 59.2576L40.5616 59.4268C40.5365 59.4279 40.511 59.4302 40.4862 59.4342L40.4131 59.4504L38.1629 60.0781L35.7885 59.7465L35.2125 59.1188C35.0741 58.9682 34.8735 58.8899 34.6697 58.9068L30.1425 59.285L30.1233 59.0457C30.1074 58.8515 30.0065 58.6759 29.8508 58.5634L29.7807 58.5191L27.2963 57.1625C27.2364 57.1297 27.1713 57.106 27.1043 57.093L24.6937 56.6278C24.6275 56.615 24.5596 56.6128 24.4929 56.6204L24.4264 56.6315L20.6238 57.4638L17.1948 55.2696L17.8462 52.0541C17.8665 51.9535 17.8626 51.849 17.8358 51.7499L17.3772 50.0535C17.3598 49.9893 17.333 49.9278 17.2975 49.8718L17.2591 49.8179L15.8729 48.0543C15.7812 47.9376 15.6532 47.8553 15.5102 47.8202L15.4482 47.8084L14.5369 47.6754C14.5109 47.6717 14.4841 47.6695 14.4578 47.6688L13.5701 47.6459L12.709 46.1585C12.6706 46.0922 12.6204 46.0334 12.5621 45.9842L12.5008 45.9377L11.1788 45.0655C11.0375 44.9722 10.8661 44.9372 10.701 44.9658L10.6308 44.9821L9.64196 45.2664L8.80005 44.3248L9.25941 43.426L10.4373 42.9947C10.771 42.8724 10.949 42.508 10.8398 42.1698L9.90709 39.2873L10.698 32.6724C10.7085 32.5843 10.7006 32.4948 10.6759 32.4095L10.4093 31.4915L10.9336 26.83C10.9481 26.7007 10.9236 26.5698 10.8642 26.4541L9.79853 24.3803L10.2586 21.1153L11.2224 19.8369L12.0296 20.8206C12.0491 20.8444 12.0705 20.867 12.0931 20.8879L14.7363 23.3228C14.8142 23.3945 14.9088 23.4463 15.011 23.4741L17.2015 24.0694L19.2183 25.2584C19.3113 25.3131 19.4163 25.3443 19.5241 25.3492L21.5447 25.4408L21.9354 26.313C22.0177 26.4966 22.1792 26.6328 22.374 26.683L23.9811 27.0973L24.5601 29.7265C24.6235 30.0143 24.87 30.226 25.1642 30.2449L25.3156 30.2545L24.7506 33.0875C24.7466 33.1076 24.7431 33.1283 24.741 33.1488L24.3872 36.5607C24.3664 36.7623 24.439 36.9623 24.5844 37.1035C24.7299 37.2446 24.9323 37.312 25.1332 37.2852L26.1006 37.156C26.4373 37.1109 26.6854 36.8175 26.6744 36.478L26.5836 33.6849L27.5459 31.3017L29.4033 28.9562C29.5493 28.7718 29.5863 28.5239 29.5008 28.3048L29.0296 27.0995L29.2748 25.2569C29.2813 25.2078 29.2816 25.1578 29.277 25.1085L29.0739 22.935L29.9357 21.7438C30.0205 21.6266 30.0648 21.4844 30.0613 21.3398L30.0133 19.3761C30.008 19.1602 29.8976 18.9623 29.7216 18.8436L29.6426 18.7978L28.5296 18.2536L28.0267 17.083L28.2859 16.6L73.0852 28.1202Z" fill="#F75A45"/>
<path d="M41.1933 31.2C41.5349 36.0153 45.3646 39.8793 50.1991 40.3372C50.1992 40.3526 50.2 40.3679 50.2 40.3833C50.2 40.3984 50.1992 40.4136 50.1991 40.4287C45.4885 40.8747 41.7329 44.5556 41.2274 49.1983C41.2078 49.1984 41.188 49.2 41.1683 49.2C41.1478 49.2 41.1271 49.1984 41.1066 49.1983C40.6041 44.5756 36.882 40.9069 32.2 40.4344V40.3314C37.0049 39.8462 40.8023 35.9944 41.1425 31.2C41.1509 31.2 41.1849 31.2 41.1933 31.2Z" fill="#FFD47E"/>
</svg>
